solid patch_0_0
 facet normal 0.7707568407058716 0.6371294260025024 0.0
  outer loop
   vertex -0.0019790232181549072 -0.0033884685039520263 0.0
   vertex -0.0019656639099121095 -0.0034046297073364257 0.0
   vertex -0.0019656639099121095 -0.0034046297073364257 -0.001
  endloop
 endfacet
 facet normal 0.7707568407058716 0.6371294260025024 0.0
  outer loop
   vertex -0.0019790232181549072 -0.0033884685039520263 0.0
   vertex -0.0019656639099121095 -0.0034046297073364257 -0.001
   vertex -0.0019790232181549072 -0.0033884685039520263 -0.001
  endloop
 endfacet
 facet normal 0.7433722019195557 0.6688780784606934 0.0
  outer loop
   vertex -0.0019930483102798464 -0.0033728814125061034 0.0
   vertex -0.0019790232181549072 -0.0033884685039520263 -0.001
   vertex -0.0019930483102798464 -0.0033728814125061034 -0.001
  endloop
 endfacet
 facet normal 0.7433722019195557 0.6688780784606934 0.0
  outer loop
   vertex -0.0019930483102798464 -0.0033728814125061034 0.0
   vertex -0.0019790232181549072 -0.0033884685039520263 0.0
   vertex -0.0019790232181549072 -0.0033884685039520263 -0.001
  endloop
 endfacet
 facet normal 0.714669942855835 0.6994619369506836 0.0
  outer loop
   vertex -0.0020077147483825684 -0.003357896089553833 0.0
   vertex -0.0019930483102798464 -0.0033728814125061034 -0.001
   vertex -0.0020077147483825684 -0.003357896089553833 -0.001
  endloop
 endfacet
 facet normal 0.714669942855835 0.6994619369506836 0.0
  outer loop
   vertex -0.0020077147483825684 -0.003357896089553833 0.0
   vertex -0.0019930483102798464 -0.0033728814125061034 0.0
   vertex -0.0019930483102798464 -0.0033728814125061034 -0.001
  endloop
 endfacet
 facet normal 0.6847153902053833 0.7288106083869934 0.0
  outer loop
   vertex -0.002022996425628662 -0.003343538999557495 0.0
   vertex -0.0020077147483825684 -0.003357896089553833 -0.001
   vertex -0.002022996425628662 -0.003343538999557495 -0.001
  endloop
 endfacet
 facet normal 0.6847153902053833 0.7288106083869934 0.0
  outer loop
   vertex -0.002022996425628662 -0.003343538999557495 0.0
   vertex -0.0020077147483825684 -0.003357896089553833 0.0
   vertex -0.0020077147483825684 -0.003357896089553833 -0.001
  endloop
 endfacet
 facet normal 0.6535550355911255 0.7568789720535278 0.0
  outer loop
   vertex -0.0020388667583465577 -0.0033298351764678956 0.0
   vertex -0.002022996425628662 -0.003343538999557495 -0.001
   vertex -0.0020388667583465577 -0.0033298351764678956 -0.001
  endloop
 endfacet
 facet normal 0.6535550355911255 0.7568789720535278 0.0
  outer loop
   vertex -0.0020388667583465577 -0.0033298351764678956 0.0
   vertex -0.002022996425628662 -0.003343538999557495 0.0
   vertex -0.002022996425628662 -0.003343538999557495 -0.001
  endloop
 endfacet
 facet normal 0.6212445497512817 0.7836167812347412 0.0
  outer loop
   vertex -0.002055297613143921 -0.0033168089389801025 0.0
   vertex -0.0020388667583465577 -0.0033298351764678956 -0.001
   vertex -0.002055297613143921 -0.0033168089389801025 -0.001
  endloop
 endfacet
 facet normal 0.6212445497512817 0.7836167812347412 0.0
  outer loop
   vertex -0.002055297613143921 -0.0033168089389801025 0.0
   vertex -0.0020388667583465577 -0.0033298351764678956 0.0
   vertex -0.0020388667583465577 -0.0033298351764678956 -0.001
  endloop
 endfacet
 facet normal 0.5878477692604065 0.8089715242385864 0.0
  outer loop
   vertex -0.0020722601413726807 -0.0033044829368591307 0.0
   vertex -0.002055297613143921 -0.0033168089389801025 -0.001
   vertex -0.0020722601413726807 -0.0033044829368591307 -0.001
  endloop
 endfacet
 facet normal 0.5878477692604065 0.8089715242385864 0.0
  outer loop
   vertex -0.0020722601413726807 -0.0033044829368591307 0.0
   vertex -0.002055297613143921 -0.0033168089389801025 0.0
   vertex -0.002055297613143921 -0.0033168089389801025 -0.001
  endloop
 endfacet
 facet normal 0.5534164309501648 0.8329047560691833 0.0
  outer loop
   vertex -0.0020897245407104493 -0.003292878866195679 0.0
   vertex -0.0020722601413726807 -0.0033044829368591307 -0.001
   vertex -0.0020897245407104493 -0.003292878866195679 -0.001
  endloop
 endfacet
 facet normal 0.5534164309501648 0.8329047560691833 0.0
  outer loop
   vertex -0.0020897245407104493 -0.003292878866195679 0.0
   vertex -0.0020722601413726807 -0.0033044829368591307 0.0
   vertex -0.0020722601413726807 -0.0033044829368591307 -0.001
  endloop
 endfacet
 facet normal 0.7723701000213623 0.6351727843284607 0.0
  outer loop
   vertex -0.002516324520111084 -0.004358401775360107 0.0
   vertex -0.002516324520111084 -0.004358401775360107 -0.001
   vertex -0.002530093193054199 -0.00434165906906128 -0.001
  endloop
 endfacet
 facet normal 0.7723701000213623 0.6351727843284607 0.0
  outer loop
   vertex -0.002530093193054199 -0.00434165906906128 0.0
   vertex -0.002516324520111084 -0.004358401775360107 0.0
   vertex -0.002530093193054199 -0.00434165906906128 -0.001
  endloop
 endfacet
 facet normal 0.7441062927246094 0.6680612564086914 0.0
  outer loop
   vertex -0.002544574737548828 -0.004325529098510742 0.0
   vertex -0.002530093193054199 -0.00434165906906128 -0.001
   vertex -0.002544574737548828 -0.004325529098510742 -0.001
  endloop
 endfacet
 facet normal 0.7441062927246094 0.6680612564086914 0.0
  outer loop
   vertex -0.002544574737548828 -0.004325529098510742 0.0
   vertex -0.002530093193054199 -0.00434165906906128 0.0
   vertex -0.002530093193054199 -0.00434165906906128 -0.001
  endloop
 endfacet
 facet normal 0.7144646048545837 0.6996716260910034 0.0
  outer loop
   vertex -0.0025597417354583742 -0.004310041427612305 0.0
   vertex -0.002544574737548828 -0.004325529098510742 -0.001
   vertex -0.0025597417354583742 -0.004310041427612305 -0.001
  endloop
 endfacet
 facet normal 0.7144646048545837 0.6996716260910034 0.0
  outer loop
   vertex -0.0025597417354583742 -0.004310041427612305 0.0
   vertex -0.002544574737548828 -0.004325529098510742 0.0
   vertex -0.002544574737548828 -0.004325529098510742 -0.001
  endloop
 endfacet
 facet normal 0.6834562420845032 0.7299914956092834 0.0
  outer loop
   vertex -0.002575565814971924 -0.004295226097106934 0.0
   vertex -0.0025597417354583742 -0.004310041427612305 -0.001
   vertex -0.002575565814971924 -0.004295226097106934 -0.001
  endloop
 endfacet
 facet normal 0.6834562420845032 0.7299914956092834 0.0
  outer loop
   vertex -0.002575565814971924 -0.004295226097106934 0.0
   vertex -0.0025597417354583742 -0.004310041427612305 0.0
   vertex -0.0025597417354583742 -0.004310041427612305 -0.001
  endloop
 endfacet
 facet normal 0.6511681079864502 0.7589335441589355 0.0
  outer loop
   vertex -0.00259201717376709 -0.004281110763549804 0.0
   vertex -0.002575565814971924 -0.004295226097106934 -0.001
   vertex -0.00259201717376709 -0.004281110763549804 -0.001
  endloop
 endfacet
 facet normal 0.6511681079864502 0.7589335441589355 0.0
  outer loop
   vertex -0.00259201717376709 -0.004281110763549804 0.0
   vertex -0.002575565814971924 -0.004295226097106934 0.0
   vertex -0.002575565814971924 -0.004295226097106934 -0.001
  endloop
 endfacet
 facet normal 0.6176656484603882 0.7864408493041992 0.0
  outer loop
   vertex -0.0026090648174285887 -0.004267721652984619 0.0
   vertex -0.00259201717376709 -0.004281110763549804 -0.001
   vertex -0.0026090648174285887 -0.004267721652984619 -0.001
  endloop
 endfacet
 facet normal 0.6176656484603882 0.7864408493041992 0.0
  outer loop
   vertex -0.0026090648174285887 -0.004267721652984619 0.0
   vertex -0.00259201717376709 -0.004281110763549804 0.0
   vertex -0.00259201717376709 -0.004281110763549804 -0.001
  endloop
 endfacet
 facet normal 0.5830117464065552 0.8124637007713318 0.0
  outer loop
   vertex -0.0026266767978668213 -0.004255083560943604 0.0
   vertex -0.0026090648174285887 -0.004267721652984619 -0.001
   vertex -0.0026266767978668213 -0.004255083560943604 -0.001
  endloop
 endfacet
 facet normal 0.5830117464065552 0.8124637007713318 0.0
  outer loop
   vertex -0.0026266767978668213 -0.004255083560943604 0.0
   vertex -0.0026090648174285887 -0.004267721652984619 0.0
   vertex -0.0026090648174285887 -0.004267721652984619 -0.001
  endloop
 endfacet
 facet normal 0.5472309589385986 0.8369815945625305 0.0
  outer loop
   vertex -0.002644819974899292 -0.0042432212829589845 0.0
   vertex -0.0026266767978668213 -0.004255083560943604 -0.001
   vertex -0.002644819974899292 -0.0042432212829589845 -0.001
  endloop
 endfacet
 facet normal 0.5472309589385986 0.8369815945625305 0.0
  outer loop
   vertex -0.002644819974899292 -0.0042432212829589845 0.0
   vertex -0.0026266767978668213 -0.004255083560943604 0.0
   vertex -0.0026266767978668213 -0.004255083560943604 -0.001
  endloop
 endfacet
 facet normal 0.7734488248825073 0.6338587403297424 0.0
  outer loop
   vertex -0.0030808191299438476 -0.005294673919677735 0.0
   vertex -0.003066775321960449 -0.005311810493469239 0.0
   vertex -0.003066775321960449 -0.005311810493469239 -0.001
  endloop
 endfacet
 facet normal 0.7734488248825073 0.6338587403297424 0.0
  outer loop
   vertex -0.0030808191299438476 -0.005294673919677735 0.0
   vertex -0.003066775321960449 -0.005311810493469239 -0.001
   vertex -0.0030808191299438476 -0.005294673919677735 -0.001
  endloop
 endfacet
 facet normal 0.7446110844612122 0.6674985289573669 0.0
  outer loop
   vertex -0.0030956082344055177 -0.005278176307678223 0.0
   vertex -0.0030808191299438476 -0.005294673919677735 -0.001
   vertex -0.0030956082344055177 -0.005278176307678223 -0.001
  endloop
 endfacet
 facet normal 0.7446110844612122 0.6674985289573669 0.0
  outer loop
   vertex -0.0030956082344055177 -0.005278176307678223 0.0
   vertex -0.0030808191299438476 -0.005294673919677735 0.0
   vertex -0.0030808191299438476 -0.005294673919677735 -0.001
  endloop
 endfacet
 facet normal 0.7143117785453796 0.6998275518417358 0.0
  outer loop
   vertex -0.0031111135482788086 -0.005262350082397461 0.0
   vertex -0.0030956082344055177 -0.005278176307678223 -0.001
   vertex -0.0031111135482788086 -0.005262350082397461 -0.001
  endloop
 endfacet
 facet normal 0.7143117785453796 0.6998275518417358 0.0
  outer loop
   vertex -0.0031111135482788086 -0.005262350082397461 0.0
   vertex -0.0030956082344055177 -0.005278176307678223 0.0
   vertex -0.0030956082344055177 -0.005278176307678223 -0.001
  endloop
 endfacet
 facet normal 0.6826080679893494 0.7307847142219543 0.0
  outer loop
   vertex -0.003127304792404175 -0.005247226238250732 0.0
   vertex -0.0031111135482788086 -0.005262350082397461 -0.001
   vertex -0.003127304792404175 -0.005247226238250732 -0.001
  endloop
 endfacet
 facet normal 0.6826080679893494 0.7307847142219543 0.0
  outer loop
   vertex -0.003127304792404175 -0.005247226238250732 0.0
   vertex -0.0031111135482788086 -0.005262350082397461 0.0
   vertex -0.0031111135482788086 -0.005262350082397461 -0.001
  endloop
 endfacet
 facet normal 0.6495533585548401 0.7603159546852112 0.0
  outer loop
   vertex -0.003144150257110596 -0.005232834815979004 0.0
   vertex -0.003127304792404175 -0.005247226238250732 -0.001
   vertex -0.003144150257110596 -0.005232834815979004 -0.001
  endloop
 endfacet
 facet normal 0.6495533585548401 0.7603159546852112 0.0
  outer loop
   vertex -0.003144150257110596 -0.005232834815979004 0.0
   vertex -0.003127304792404175 -0.005247226238250732 0.0
   vertex -0.003127304792404175 -0.005247226238250732 -0.001
  endloop
 endfacet
 facet normal 0.6152405142784119 0.7883394956588745 0.0
  outer loop
   vertex -0.0031616168022155764 -0.005219203472137451 0.0
   vertex -0.003144150257110596 -0.005232834815979004 -0.001
   vertex -0.0031616168022155764 -0.005219203472137451 -0.001
  endloop
 endfacet
 facet normal 0.6152405142784119 0.7883394956588745 0.0
  outer loop
   vertex -0.0031616168022155764 -0.005219203472137451 0.0
   vertex -0.003144150257110596 -0.005232834815979004 0.0
   vertex -0.003144150257110596 -0.005232834815979004 -0.001
  endloop
 endfacet
 facet normal 0.5797143578529358 0.8148198127746582 0.0
  outer loop
   vertex -0.0031796698570251466 -0.005206359386444092 0.0
   vertex -0.0031616168022155764 -0.005219203472137451 -0.001
   vertex -0.0031796698570251466 -0.005206359386444092 -0.001
  endloop
 endfacet
 facet normal 0.5797143578529358 0.8148198127746582 0.0
  outer loop
   vertex -0.0031796698570251466 -0.005206359386444092 0.0
   vertex -0.0031616168022155764 -0.005219203472137451 0.0
   vertex -0.0031616168022155764 -0.005219203472137451 -0.001
  endloop
 endfacet
 facet normal 0.5430393218994141 0.8397072553634644 0.0
  outer loop
   vertex -0.0031982743740081787 -0.005194327831268311 0.0
   vertex -0.0031796698570251466 -0.005206359386444092 -0.001
   vertex -0.0031982743740081787 -0.005194327831268311 -0.001
  endloop
 endfacet
 facet normal 0.5430393218994141 0.8397072553634644 0.0
  outer loop
   vertex -0.0031982743740081787 -0.005194327831268311 0.0
   vertex -0.0031796698570251466 -0.005206359386444092 0.0
   vertex -0.0031796698570251466 -0.005206359386444092 -0.001
  endloop
 endfacet
 facet normal 0.7742215991020203 0.6329146027565002 0.0
  outer loop
   vertex -0.0036313438415527346 -0.006247584819793701 0.0
   vertex -0.00361710262298584 -0.006265005588531494 0.0
   vertex -0.00361710262298584 -0.006265005588531494 -0.001
  endloop
 endfacet
 facet normal 0.7742215991020203 0.6329146027565002 0.0
  outer loop
   vertex -0.0036313438415527346 -0.006247584819793701 0.0
   vertex -0.00361710262298584 -0.006265005588531494 -0.001
   vertex -0.0036313438415527346 -0.006247584819793701 -0.001
  endloop
 endfacet
 facet normal 0.7449830174446106 0.6670835018157959 0.0
  outer loop
   vertex -0.0036463541984558105 -0.00623082160949707 0.0
   vertex -0.0036313438415527346 -0.006247584819793701 -0.001
   vertex -0.0036463541984558105 -0.00623082160949707 -0.001
  endloop
 endfacet
 facet normal 0.7449830174446106 0.6670835018157959 0.0
  outer loop
   vertex -0.0036463541984558105 -0.00623082160949707 0.0
   vertex -0.0036313438415527346 -0.006247584819793701 0.0
   vertex -0.0036313438415527346 -0.006247584819793701 -0.001
  endloop
 endfacet
 facet normal 0.714201807975769 0.6999397873878479 0.0
  outer loop
   vertex -0.0036621036529541017 -0.006214751243591309 0.0
   vertex -0.0036463541984558105 -0.00623082160949707 -0.001
   vertex -0.0036621036529541017 -0.006214751243591309 -0.001
  endloop
 endfacet
 facet normal 0.714201807975769 0.6999397873878479 0.0
  outer loop
   vertex -0.0036621036529541017 -0.006214751243591309 0.0
   vertex -0.0036463541984558105 -0.00623082160949707 0.0
   vertex -0.0036463541984558105 -0.00623082160949707 -0.001
  endloop
 endfacet
 facet normal 0.681987464427948 0.731363832950592 0.0
  outer loop
   vertex -0.003678560256958008 -0.006199405670166015 0.0
   vertex -0.0036621036529541017 -0.006214751243591309 -0.001
   vertex -0.003678560256958008 -0.006199405670166015 -0.001
  endloop
 endfacet
 facet normal 0.681987464427948 0.731363832950592 0.0
  outer loop
   vertex -0.003678560256958008 -0.006199405670166015 0.0
   vertex -0.0036621036529541017 -0.006214751243591309 0.0
   vertex -0.0036621036529541017 -0.006214751243591309 -0.001
  endloop
 endfacet
 facet normal 0.6483884453773499 0.7613096833229065 0.0
  outer loop
   vertex -0.003695690393447876 -0.006184816360473633 0.0
   vertex -0.003678560256958008 -0.006199405670166015 -0.001
   vertex -0.003695690393447876 -0.006184816360473633 -0.001
  endloop
 endfacet
 facet normal 0.6483884453773499 0.7613096833229065 0.0
  outer loop
   vertex -0.003695690393447876 -0.006184816360473633 0.0
   vertex -0.003678560256958008 -0.006199405670166015 0.0
   vertex -0.003678560256958008 -0.006199405670166015 -0.001
  endloop
 endfacet
 facet normal 0.6134930849075317 0.7897001504898071 0.0
  outer loop
   vertex -0.0037134597301483156 -0.006171011924743653 0.0
   vertex -0.003695690393447876 -0.006184816360473633 -0.001
   vertex -0.0037134597301483156 -0.006171011924743653 -0.001
  endloop
 endfacet
 facet normal 0.6134930849075317 0.7897001504898071 0.0
  outer loop
   vertex -0.0037134597301483156 -0.006171011924743653 0.0
   vertex -0.003695690393447876 -0.006184816360473633 0.0
   vertex -0.003695690393447876 -0.006184816360473633 -0.001
  endloop
 endfacet
 facet normal 0.5773245096206665 0.816514790058136 0.0
  outer loop
   vertex -0.003731832265853882 -0.006158021450042725 0.0
   vertex -0.0037134597301483156 -0.006171011924743653 -0.001
   vertex -0.003731832265853882 -0.006158021450042725 -0.001
  endloop
 endfacet
 facet normal 0.5773245096206665 0.816514790058136 0.0
  outer loop
   vertex -0.003731832265853882 -0.006158021450042725 0.0
   vertex -0.0037134597301483156 -0.006171011924743653 0.0
   vertex -0.0037134597301483156 -0.006171011924743653 -0.001
  endloop
 endfacet
 facet normal 0.5400221347808838 0.8416508436203003 0.0
  outer loop
   vertex -0.0037507705688476565 -0.006145870208740235 0.0
   vertex -0.003731832265853882 -0.006158021450042725 -0.001
   vertex -0.0037507705688476565 -0.006145870208740235 -0.001
  endloop
 endfacet
 facet normal 0.5400221347808838 0.8416508436203003 0.0
  outer loop
   vertex -0.0037507705688476565 -0.006145870208740235 0.0
   vertex -0.003731832265853882 -0.006158021450042725 0.0
   vertex -0.003731832265853882 -0.006158021450042725 -0.001
  endloop
 endfacet
 facet normal 0.9685815572738647 0.2486959546804428 0.0
  outer loop
   vertex -0.004235321521759033 -0.007289928436279297 0.0
   vertex -0.004227170467376709 -0.00732167387008667 0.0
   vertex -0.004227170467376709 -0.00732167387008667 -0.001
  endloop
 endfacet
 facet normal 0.9685815572738647 0.2486959546804428 0.0
  outer loop
   vertex -0.004235321521759033 -0.007289928436279297 0.0
   vertex -0.004227170467376709 -0.00732167387008667 -0.001
   vertex -0.004235321521759033 -0.007289928436279297 -0.001
  endloop
 endfacet
 facet normal 0.9502041339874268 0.31162819266319275 0.0
  outer loop
   vertex -0.004245535373687744 -0.007258784770965576 0.0
   vertex -0.004235321521759033 -0.007289928436279297 -0.001
   vertex -0.004245535373687744 -0.007258784770965576 -0.001
  endloop
 endfacet
 facet normal 0.9502041339874268 0.31162819266319275 0.0
  outer loop
   vertex -0.004245535373687744 -0.007258784770965576 0.0
   vertex -0.004235321521759033 -0.007289928436279297 0.0
   vertex -0.004235321521759033 -0.007289928436279297 -0.001
  endloop
 endfacet
 facet normal 0.9277434945106506 0.3732185959815979 0.0
  outer loop
   vertex -0.004257767677307129 -0.007228377819061279 0.0
   vertex -0.004245535373687744 -0.007258784770965576 -0.001
   vertex -0.004257767677307129 -0.007228377819061279 -0.001
  endloop
 endfacet
 facet normal 0.9277434945106506 0.3732185959815979 0.0
  outer loop
   vertex -0.004257767677307129 -0.007228377819061279 0.0
   vertex -0.004245535373687744 -0.007258784770965576 0.0
   vertex -0.004245535373687744 -0.007258784770965576 -0.001
  endloop
 endfacet
 facet normal 0.9013043642044067 0.43318650126457214 0.0
  outer loop
   vertex -0.004271965503692627 -0.007198837280273438 0.0
   vertex -0.004257767677307129 -0.007228377819061279 -0.001
   vertex -0.004271965503692627 -0.007198837280273438 -0.001
  endloop
 endfacet
 facet normal 0.9013043642044067 0.43318650126457214 0.0
  outer loop
   vertex -0.004271965503692627 -0.007198837280273438 0.0
   vertex -0.004257767677307129 -0.007228377819061279 0.0
   vertex -0.004257767677307129 -0.007228377819061279 -0.001
  endloop
 endfacet
 facet normal 0.8709854483604431 0.49130868911743164 0.0
  outer loop
   vertex -0.004288068294525146 -0.007170290470123291 0.0
   vertex -0.004271965503692627 -0.007198837280273438 -0.001
   vertex -0.004288068294525146 -0.007170290470123291 -0.001
  endloop
 endfacet
 facet normal 0.8709854483604431 0.49130868911743164 0.0
  outer loop
   vertex -0.004288068294525146 -0.007170290470123291 0.0
   vertex -0.004271965503692627 -0.007198837280273438 0.0
   vertex -0.004271965503692627 -0.007198837280273438 -0.001
  endloop
 endfacet
 facet normal 0.8369239568710327 0.5473191142082214 0.0
  outer loop
   vertex -0.004306006908416748 -0.007142859935760498 0.0
   vertex -0.004288068294525146 -0.007170290470123291 -0.001
   vertex -0.004306006908416748 -0.007142859935760498 -0.001
  endloop
 endfacet
 facet normal 0.8369239568710327 0.5473191142082214 0.0
  outer loop
   vertex -0.004306006908416748 -0.007142859935760498 0.0
   vertex -0.004288068294525146 -0.007170290470123291 0.0
   vertex -0.004288068294525146 -0.007170290470123291 -0.001
  endloop
 endfacet
 facet normal 0.7992766499519348 0.600963294506073 0.0
  outer loop
   vertex -0.004325703620910644 -0.007116663455963135 0.0
   vertex -0.004306006908416748 -0.007142859935760498 -0.001
   vertex -0.004325703620910644 -0.007116663455963135 -0.001
  endloop
 endfacet
 facet normal 0.7992766499519348 0.600963294506073 0.0
  outer loop
   vertex -0.004325703620910644 -0.007116663455963135 0.0
   vertex -0.004306006908416748 -0.007142859935760498 0.0
   vertex -0.004306006908416748 -0.007142859935760498 -0.001
  endloop
 endfacet
 facet normal 0.7581782937049866 0.6520472764968872 0.0
  outer loop
   vertex -0.004347074985504151 -0.0070918135643005375 0.0
   vertex -0.004325703620910644 -0.007116663455963135 -0.001
   vertex -0.004347074985504151 -0.0070918135643005375 -0.001
  endloop
 endfacet
 facet normal 0.7581782937049866 0.6520472764968872 0.0
  outer loop
   vertex -0.004347074985504151 -0.0070918135643005375 0.0
   vertex -0.004325703620910644 -0.007116663455963135 0.0
   vertex -0.004325703620910644 -0.007116663455963135 -0.001
  endloop
 endfacet
 facet normal 0.7138323783874512 0.7003166079521179 0.0
  outer loop
   vertex -0.004370028018951416 -0.007068417549133301 0.0
   vertex -0.004347074985504151 -0.0070918135643005375 -0.001
   vertex -0.004370028018951416 -0.007068417549133301 -0.001
  endloop
 endfacet
 facet normal 0.7138323783874512 0.7003166079521179 0.0
  outer loop
   vertex -0.004370028018951416 -0.007068417549133301 0.0
   vertex -0.004347074985504151 -0.0070918135643005375 0.0
   vertex -0.004347074985504151 -0.0070918135643005375 -0.001
  endloop
 endfacet
 facet normal 0.6664184331893921 0.7455779910087585 0.0
  outer loop
   vertex -0.004394464492797852 -0.007046575546264648 0.0
   vertex -0.004370028018951416 -0.007068417549133301 -0.001
   vertex -0.004394464492797852 -0.007046575546264648 -0.001
  endloop
 endfacet
 facet normal 0.6664184331893921 0.7455779910087585 0.0
  outer loop
   vertex -0.004394464492797852 -0.007046575546264648 0.0
   vertex -0.004370028018951416 -0.007068417549133301 0.0
   vertex -0.004370028018951416 -0.007068417549133301 -0.001
  endloop
 endfacet
 facet normal 0.6161379814147949 0.787638247013092 0.0
  outer loop
   vertex -0.004420279502868652 -0.007026381492614746 0.0
   vertex -0.004394464492797852 -0.007046575546264648 -0.001
   vertex -0.004420279502868652 -0.007026381492614746 -0.001
  endloop
 endfacet
 facet normal 0.6161379814147949 0.787638247013092 0.0
  outer loop
   vertex -0.004420279502868652 -0.007026381492614746 0.0
   vertex -0.004394464492797852 -0.007046575546264648 0.0
   vertex -0.004394464492797852 -0.007046575546264648 -0.001
  endloop
 endfacet
 facet normal 0.5632153749465942 0.8263100981712341 0.0
  outer loop
   vertex -0.004447362422943115 -0.007007921695709228 0.0
   vertex -0.004420279502868652 -0.007026381492614746 -0.001
   vertex -0.004447362422943115 -0.007007921695709228 -0.001
  endloop
 endfacet
 facet normal 0.5632153749465942 0.8263100981712341 0.0
  outer loop
   vertex -0.004447362422943115 -0.007007921695709228 0.0
   vertex -0.004420279502868652 -0.007026381492614746 0.0
   vertex -0.004420279502868652 -0.007026381492614746 -0.001
  endloop
 endfacet
 facet normal 0.9697028398513794 0.24428749084472656 0.0
  outer loop
   vertex -0.004786584377288818 -0.008244410514831543 0.0
   vertex -0.004778481960296631 -0.008276573181152344 0.0
   vertex -0.004778481960296631 -0.008276573181152344 -0.001
  endloop
 endfacet
 facet normal 0.9697028398513794 0.24428749084472656 0.0
  outer loop
   vertex -0.004786584377288818 -0.008244410514831543 0.0
   vertex -0.004778481960296631 -0.008276573181152344 -0.001
   vertex -0.004786584377288818 -0.008244410514831543 -0.001
  endloop
 endfacet
 facet normal 0.951370894908905 0.3080476224422455 0.0
  outer loop
   vertex -0.004796802043914795 -0.008212854385375976 0.0
   vertex -0.004786584377288818 -0.008244410514831543 -0.001
   vertex -0.004796802043914795 -0.008212854385375976 -0.001
  endloop
 endfacet
 facet normal 0.951370894908905 0.3080476224422455 0.0
  outer loop
   vertex -0.004796802043914795 -0.008212854385375976 0.0
   vertex -0.004786584377288818 -0.008244410514831543 0.0
   vertex -0.004786584377288818 -0.008244410514831543 -0.001
  endloop
 endfacet
 facet normal 0.9288579225540161 0.3704361915588379 0.0
  outer loop
   vertex -0.0048090887069702146 -0.008182045936584472 0.0
   vertex -0.004796802043914795 -0.008212854385375976 -0.001
   vertex -0.0048090887069702146 -0.008182045936584472 -0.001
  endloop
 endfacet
 facet normal 0.9288579225540161 0.3704361915588379 0.0
  outer loop
   vertex -0.0048090887069702146 -0.008182045936584472 0.0
   vertex -0.004796802043914795 -0.008212854385375976 0.0
   vertex -0.004796802043914795 -0.008212854385375976 -0.001
  endloop
 endfacet
 facet normal 0.9022497534751892 0.4312138557434082 0.0
  outer loop
   vertex -0.004823391437530518 -0.008152119636535645 0.0
   vertex -0.0048090887069702146 -0.008182045936584472 -0.001
   vertex -0.004823391437530518 -0.008152119636535645 -0.001
  endloop
 endfacet
 facet normal 0.9022497534751892 0.4312138557434082 0.0
  outer loop
   vertex -0.004823391437530518 -0.008152119636535645 0.0
   vertex -0.0048090887069702146 -0.008182045936584472 0.0
   vertex -0.0048090887069702146 -0.008182045936584472 -0.001
  endloop
 endfacet
 facet normal 0.8716769218444824 0.4900810420513153 0.0
  outer loop
   vertex -0.004839646339416504 -0.008123208045959472 0.0
   vertex -0.004823391437530518 -0.008152119636535645 -0.001
   vertex -0.004839646339416504 -0.008123208045959472 -0.001
  endloop
 endfacet
 facet normal 0.8716769218444824 0.4900810420513153 0.0
  outer loop
   vertex -0.004839646339416504 -0.008123208045959472 0.0
   vertex -0.004823391437530518 -0.008152119636535645 0.0
   vertex -0.004823391437530518 -0.008152119636535645 -0.001
  endloop
 endfacet
 facet normal 0.8372657895088196 0.5467960834503174 0.0
  outer loop
   vertex -0.00485778284072876 -0.008095437049865723 0.0
   vertex -0.004839646339416504 -0.008123208045959472 -0.001
   vertex -0.00485778284072876 -0.008095437049865723 -0.001
  endloop
 endfacet
 facet normal 0.8372657895088196 0.5467960834503174 0.0
  outer loop
   vertex -0.00485778284072876 -0.008095437049865723 0.0
   vertex -0.004839646339416504 -0.008123208045959472 0.0
   vertex -0.004839646339416504 -0.008123208045959472 -0.001
  endloop
 endfacet
 facet normal 0.7991642951965332 0.6011127829551697 0.0
  outer loop
   vertex -0.004877720355987549 -0.008068930625915528 0.0
   vertex -0.00485778284072876 -0.008095437049865723 -0.001
   vertex -0.004877720355987549 -0.008068930625915528 -0.001
  endloop
 endfacet
 facet normal 0.7991642951965332 0.6011127829551697 0.0
  outer loop
   vertex -0.004877720355987549 -0.008068930625915528 0.0
   vertex -0.00485778284072876 -0.008095437049865723 0.0
   vertex -0.00485778284072876 -0.008095437049865723 -0.001
  endloop
 endfacet
 facet normal 0.7575705051422119 0.6527532935142517 0.0
  outer loop
   vertex -0.004899371147155762 -0.008043803215026856 0.0
   vertex -0.004877720355987549 -0.008068930625915528 -0.001
   vertex -0.004899371147155762 -0.008043803215026856 -0.001
  endloop
 endfacet
 facet normal 0.7575705051422119 0.6527532935142517 0.0
  outer loop
   vertex -0.004899371147155762 -0.008043803215026856 0.0
   vertex -0.004877720355987549 -0.008068930625915528 0.0
   vertex -0.004877720355987549 -0.008068930625915528 -0.001
  endloop
 endfacet
 facet normal 0.7126057744026184 0.7015647292137146 0.0
  outer loop
   vertex -0.004922640800476074 -0.008020167350769044 0.0
   vertex -0.004899371147155762 -0.008043803215026856 -0.001
   vertex -0.004922640800476074 -0.008020167350769044 -0.001
  endloop
 endfacet
 facet normal 0.6645431518554688 0.7472498416900635 0.0
  outer loop
   vertex -0.004922640800476074 -0.008020167350769044 0.0
   vertex -0.004922640800476074 -0.008020167350769044 -0.001
   vertex -0.004947425842285157 -0.007998125553131103 -0.001
  endloop
 endfacet
 facet normal 0.7126057744026184 0.7015647292137146 0.0
  outer loop
   vertex -0.004922640800476074 -0.008020167350769044 0.0
   vertex -0.004899371147155762 -0.008043803215026856 0.0
   vertex -0.004899371147155762 -0.008043803215026856 -0.001
  endloop
 endfacet
 facet normal 0.6645431518554688 0.7472498416900635 0.0
  outer loop
   vertex -0.004947425842285157 -0.007998125553131103 0.0
   vertex -0.004922640800476074 -0.008020167350769044 0.0
   vertex -0.004947425842285157 -0.007998125553131103 -0.001
  endloop
 endfacet
 facet normal 0.6135234832763672 0.7896764874458313 0.0
  outer loop
   vertex -0.004973618030548096 -0.007977776050567627 0.0
   vertex -0.004947425842285157 -0.007998125553131103 -0.001
   vertex -0.004973618030548096 -0.007977776050567627 -0.001
  endloop
 endfacet
 facet normal 0.6135234832763672 0.7896764874458313 0.0
  outer loop
   vertex -0.004973618030548096 -0.007977776050567627 0.0
   vertex -0.004947425842285157 -0.007998125553131103 0.0
   vertex -0.004947425842285157 -0.007998125553131103 -0.001
  endloop
 endfacet
 facet normal 0.5598285794258118 0.8286084532737732 0.0
  outer loop
   vertex -0.005001101493835449 -0.00795920753479004 0.0
   vertex -0.004973618030548096 -0.007977776050567627 -0.001
   vertex -0.005001101493835449 -0.00795920753479004 -0.001
  endloop
 endfacet
 facet normal 0.5598285794258118 0.8286084532737732 0.0
  outer loop
   vertex -0.005001101493835449 -0.00795920753479004 0.0
   vertex -0.004973618030548096 -0.007977776050567627 0.0
   vertex -0.004973618030548096 -0.007977776050567627 -0.001
  endloop
 endfacet
 facet normal 0.7014036178588867 0.712764322757721 0.0
  outer loop
   vertex -0.005407114505767823 -0.004760653972625733 0.0
   vertex -0.005362359523773194 -0.004804695606231689 0.0
   vertex -0.005362359523773194 -0.004804695606231689 -0.001
  endloop
 endfacet
 facet normal 0.7014036178588867 0.712764322757721 0.0
  outer loop
   vertex -0.005407114505767823 -0.004760653972625733 0.0
   vertex -0.005362359523773194 -0.004804695606231689 -0.001
   vertex -0.005407114505767823 -0.004760653972625733 -0.001
  endloop
 endfacet
 facet normal 0.6065338850021362 0.7950576543807983 0.0
  outer loop
   vertex -0.0054570364952087405 -0.004722569465637207 0.0
   vertex -0.005407114505767823 -0.004760653972625733 -0.001
   vertex -0.0054570364952087405 -0.004722569465637207 -0.001
  endloop
 endfacet
 facet normal 0.6065338850021362 0.7950576543807983 0.0
  outer loop
   vertex -0.0054570364952087405 -0.004722569465637207 0.0
   vertex -0.005407114505767823 -0.004760653972625733 0.0
   vertex -0.005407114505767823 -0.004760653972625733 -0.001
  endloop
 endfacet
 facet normal 0.5021054744720459 0.8648063540458679 0.0
  outer loop
   vertex -0.005511338233947754 -0.004691041946411133 0.0
   vertex -0.0054570364952087405 -0.004722569465637207 -0.001
   vertex -0.005511338233947754 -0.004691041946411133 -0.001
  endloop
 endfacet
 facet normal 0.5021054744720459 0.8648063540458679 0.0
  outer loop
   vertex -0.005511338233947754 -0.004691041946411133 0.0
   vertex -0.0054570364952087405 -0.004722569465637207 0.0
   vertex -0.0054570364952087405 -0.004722569465637207 -0.001
  endloop
 endfacet
 facet normal 0.3897670805454254 0.9209135174751282 0.0
  outer loop
   vertex -0.005569162845611572 -0.004666568279266358 0.0
   vertex -0.005511338233947754 -0.004691041946411133 -0.001
   vertex -0.005569162845611572 -0.004666568279266358 -0.001
  endloop
 endfacet
 facet normal 0.2712610363960266 0.9625058174133301 0.0
  outer loop
   vertex -0.005569162845611572 -0.004666568279266358 0.0
   vertex -0.005569162845611572 -0.004666568279266358 -0.001
   vertex -0.005629599094390869 -0.0046495356559753415 -0.001
  endloop
 endfacet
 facet normal 0.3897670805454254 0.9209135174751282 0.0
  outer loop
   vertex -0.005569162845611572 -0.004666568279266358 0.0
   vertex -0.005511338233947754 -0.004691041946411133 0.0
   vertex -0.005511338233947754 -0.004691041946411133 -0.001
  endloop
 endfacet
 facet normal 0.2712610363960266 0.9625058174133301 0.0
  outer loop
   vertex -0.005629599094390869 -0.0046495356559753415 0.0
   vertex -0.005569162845611572 -0.004666568279266358 0.0
   vertex -0.005629599094390869 -0.0046495356559753415 -0.001
  endloop
 endfacet
 facet normal 0.1484941840171814 0.9889132976531982 0.0
  outer loop
   vertex -0.005691693782806396 -0.004640211582183838 0.0
   vertex -0.005629599094390869 -0.0046495356559753415 -0.001
   vertex -0.005691693782806396 -0.004640211582183838 -0.001
  endloop
 endfacet
 facet normal 0.1484941840171814 0.9889132976531982 0.0
  outer loop
   vertex -0.005691693782806396 -0.004640211582183838 0.0
   vertex -0.005629599094390869 -0.0046495356559753415 0.0
   vertex -0.005629599094390869 -0.0046495356559753415 -0.001
  endloop
 endfacet
 facet normal 0.02337467670440674 0.9997268319129944 0.0
  outer loop
   vertex -0.005754467010498047 -0.004638743877410889 0.0
   vertex -0.005691693782806396 -0.004640211582183838 -0.001
   vertex -0.005754467010498047 -0.004638743877410889 -0.001
  endloop
 endfacet
 facet normal 0.02337467670440674 0.9997268319129944 0.0
  outer loop
   vertex -0.005754467010498047 -0.004638743877410889 0.0
   vertex -0.005691693782806396 -0.004640211582183838 0.0
   vertex -0.005691693782806396 -0.004640211582183838 -0.001
  endloop
 endfacet
 facet normal -0.10211018472909927 0.9947731494903564 0.0
  outer loop
   vertex -0.005816929340362549 -0.004645155429840088 0.0
   vertex -0.005754467010498047 -0.004638743877410889 -0.001
   vertex -0.005816929340362549 -0.004645155429840088 -0.001
  endloop
 endfacet
 facet normal -0.10211018472909927 0.9947731494903564 0.0
  outer loop
   vertex -0.005816929340362549 -0.004645155429840088 0.0
   vertex -0.005754467010498047 -0.004638743877410889 0.0
   vertex -0.005754467010498047 -0.004638743877410889 -0.001
  endloop
 endfacet
 facet normal -0.22597748041152954 0.9741324782371521 0.0
  outer loop
   vertex -0.005878095626831055 -0.004659344673156738 0.0
   vertex -0.005816929340362549 -0.004645155429840088 -0.001
   vertex -0.005878095626831055 -0.004659344673156738 -0.001
  endloop
 endfacet
 facet normal -0.22597748041152954 0.9741324782371521 0.0
  outer loop
   vertex -0.005878095626831055 -0.004659344673156738 0.0
   vertex -0.005816929340362549 -0.004645155429840088 0.0
   vertex -0.005816929340362549 -0.004645155429840088 -0.001
  endloop
 endfacet
 facet normal -0.346283495426178 0.9381299018859863 0.0
  outer loop
   vertex -0.0059370012283325195 -0.004681087970733642 0.0
   vertex -0.005878095626831055 -0.004659344673156738 -0.001
   vertex -0.0059370012283325195 -0.004681087970733642 -0.001
  endloop
 endfacet
 facet normal -0.346283495426178 0.9381299018859863 0.0
  outer loop
   vertex -0.0059370012283325195 -0.004681087970733642 0.0
   vertex -0.005878095626831055 -0.004659344673156738 0.0
   vertex -0.005878095626831055 -0.004659344673156738 -0.001
  endloop
 endfacet
 facet normal -0.46114423871040344 0.8873252272605896 0.0
  outer loop
   vertex -0.005992716789245606 -0.004710043430328369 0.0
   vertex -0.0059370012283325195 -0.004681087970733642 -0.001
   vertex -0.005992716789245606 -0.004710043430328369 -0.001
  endloop
 endfacet
 facet normal -0.5687071681022644 0.8225400447845459 0.0
  outer loop
   vertex -0.005992716789245606 -0.004710043430328369 0.0
   vertex -0.005992716789245606 -0.004710043430328369 -0.001
   vertex -0.006044364452362061 -0.004745752811431885 -0.001
  endloop
 endfacet
 facet normal -0.46114423871040344 0.8873252272605896 0.0
  outer loop
   vertex -0.005992716789245606 -0.004710043430328369 0.0
   vertex -0.0059370012283325195 -0.004681087970733642 0.0
   vertex -0.0059370012283325195 -0.004681087970733642 -0.001
  endloop
 endfacet
 facet normal -0.5687071681022644 0.8225400447845459 0.0
  outer loop
   vertex -0.006044364452362061 -0.004745752811431885 0.0
   vertex -0.005992716789245606 -0.004710043430328369 0.0
   vertex -0.006044364452362061 -0.004745752811431885 -0.001
  endloop
 endfacet
 facet normal -0.667319655418396 0.744771420955658 0.0
  outer loop
   vertex -0.006091129302978515 -0.004787654399871826 0.0
   vertex -0.006044364452362061 -0.004745752811431885 -0.001
   vertex -0.006091129302978515 -0.004787654399871826 -0.001
  endloop
 endfacet
 facet normal -0.667319655418396 0.744771420955658 0.0
  outer loop
   vertex -0.006091129302978515 -0.004787654399871826 0.0
   vertex -0.006044364452362061 -0.004745752811431885 0.0
   vertex -0.006044364452362061 -0.004745752811431885 -0.001
  endloop
 endfacet
 facet normal -0.7554036378860474 0.6552597880363464 0.0
  outer loop
   vertex -0.006132273197174073 -0.0048350863456726074 0.0
   vertex -0.006091129302978515 -0.004787654399871826 -0.001
   vertex -0.006132273197174073 -0.0048350863456726074 -0.001
  endloop
 endfacet
 facet normal -0.7554036378860474 0.6552597880363464 0.0
  outer loop
   vertex -0.006132273197174073 -0.0048350863456726074 0.0
   vertex -0.006091129302978515 -0.004787654399871826 0.0
   vertex -0.006091129302978515 -0.004787654399871826 -0.001
  endloop
 endfacet
 facet normal -0.8315674662590027 0.5554237961769104 0.0
  outer loop
   vertex -0.006167148590087891 -0.004887300968170166 0.0
   vertex -0.006132273197174073 -0.0048350863456726074 -0.001
   vertex -0.006167148590087891 -0.004887300968170166 -0.001
  endloop
 endfacet
 facet normal -0.8315674662590027 0.5554237961769104 0.0
  outer loop
   vertex -0.006167148590087891 -0.004887300968170166 0.0
   vertex -0.006132273197174073 -0.0048350863456726074 0.0
   vertex -0.006132273197174073 -0.0048350863456726074 -0.001
  endloop
 endfacet
 facet normal -0.894627571105957 0.44681257009506226 0.0
  outer loop
   vertex -0.006195204257965088 -0.004943475246429444 0.0
   vertex -0.006167148590087891 -0.004887300968170166 -0.001
   vertex -0.006195204257965088 -0.004943475246429444 -0.001
  endloop
 endfacet
 facet normal -0.894627571105957 0.44681257009506226 0.0
  outer loop
   vertex -0.006195204257965088 -0.004943475246429444 0.0
   vertex -0.006167148590087891 -0.004887300968170166 0.0
   vertex -0.006167148590087891 -0.004887300968170166 -0.001
  endloop
 endfacet
 facet normal -0.943573534488678 0.3311631679534912 0.0
  outer loop
   vertex -0.00621599817276001 -0.0050027227401733395 0.0
   vertex -0.006195204257965088 -0.004943475246429444 -0.001
   vertex -0.00621599817276001 -0.0050027227401733395 -0.001
  endloop
 endfacet
 facet normal -0.943573534488678 0.3311631679534912 0.0
  outer loop
   vertex -0.00621599817276001 -0.0050027227401733395 0.0
   vertex -0.006195204257965088 -0.004943475246429444 0.0
   vertex -0.006195204257965088 -0.004943475246429444 -0.001
  endloop
 endfacet
 facet normal -0.9776376485824585 0.21029658615589142 0.0
  outer loop
   vertex -0.006229202747344971 -0.005064108848571777 0.0
   vertex -0.00621599817276001 -0.0050027227401733395 -0.001
   vertex -0.006229202747344971 -0.005064108848571777 -0.001
  endloop
 endfacet
 facet normal -0.9776376485824585 0.21029658615589142 0.0
  outer loop
   vertex -0.006229202747344971 -0.005064108848571777 0.0
   vertex -0.00621599817276001 -0.0050027227401733395 0.0
   vertex -0.00621599817276001 -0.0050027227401733395 -0.001
  endloop
 endfacet
 facet normal -0.9962863326072693 0.08610200881958008 0.0
  outer loop
   vertex -0.006234609127044678 -0.005126666069030762 0.0
   vertex -0.006229202747344971 -0.005064108848571777 -0.001
   vertex -0.006234609127044678 -0.005126666069030762 -0.001
  endloop
 endfacet
 facet normal -0.9992217421531677 -0.03944366052746773 -0.0
  outer loop
   vertex -0.006234609127044678 -0.005126666069030762 0.0
   vertex -0.006234609127044678 -0.005126666069030762 -0.001
   vertex -0.006232132434844971 -0.005189407825469971 -0.001
  endloop
 endfacet
 facet normal -0.9962863326072693 0.08610200881958008 0.0
  outer loop
   vertex -0.006234609127044678 -0.005126666069030762 0.0
   vertex -0.006229202747344971 -0.005064108848571777 0.0
   vertex -0.006229202747344971 -0.005064108848571777 -0.001
  endloop
 endfacet
 facet normal -0.9992217421531677 -0.03944366052746773 -0.0
  outer loop
   vertex -0.006232132434844971 -0.005189407825469971 0.0
   vertex -0.006234609127044678 -0.005126666069030762 0.0
   vertex -0.006232132434844971 -0.005189407825469971 -0.001
  endloop
 endfacet
 facet normal -0.9863994121551514 -0.1643657237291336 -0.0
  outer loop
   vertex -0.006221811771392823 -0.005251344680786133 0.0
   vertex -0.006232132434844971 -0.005189407825469971 -0.001
   vertex -0.006221811771392823 -0.005251344680786133 -0.001
  endloop
 endfacet
 facet normal -0.9863994121551514 -0.1643657237291336 0.0
  outer loop
   vertex -0.006221811771392823 -0.005251344680786133 0.0
   vertex -0.006232132434844971 -0.005189407825469971 0.0
   vertex -0.006232132434844971 -0.005189407825469971 -0.001
  endloop
 endfacet
 facet normal -0.9580203294754028 -0.28670060634613037 -0.0
  outer loop
   vertex -0.00620380973815918 -0.005311499118804932 0.0
   vertex -0.006221811771392823 -0.005251344680786133 -0.001
   vertex -0.00620380973815918 -0.005311499118804932 -0.001
  endloop
 endfacet
 facet normal -0.9580203294754028 -0.28670060634613037 0.0
  outer loop
   vertex -0.00620380973815918 -0.005311499118804932 0.0
   vertex -0.006221811771392823 -0.005251344680786133 0.0
   vertex -0.006221811771392823 -0.005251344680786133 -0.001
  endloop
 endfacet
 facet normal -0.9145348072052002 -0.4045073986053467 -0.0
  outer loop
   vertex -0.006178410530090332 -0.0053689231872558595 0.0
   vertex -0.00620380973815918 -0.005311499118804932 -0.001
   vertex -0.006178410530090332 -0.0053689231872558595 -0.001
  endloop
 endfacet
 facet normal -0.9145348072052002 -0.4045073986053467 0.0
  outer loop
   vertex -0.006178410530090332 -0.0053689231872558595 0.0
   vertex -0.00620380973815918 -0.005311499118804932 0.0
   vertex -0.00620380973815918 -0.005311499118804932 -0.001
  endloop
 endfacet
 facet normal -0.8566226959228516 -0.5159435272216797 -0.0
  outer loop
   vertex -0.006146014213562012 -0.00542271089553833 0.0
   vertex -0.006178410530090332 -0.0053689231872558595 -0.001
   vertex -0.006146014213562012 -0.00542271089553833 -0.001
  endloop
 endfacet
 facet normal -0.8566226959228516 -0.5159435272216797 0.0
  outer loop
   vertex -0.006146014213562012 -0.00542271089553833 0.0
   vertex -0.006178410530090332 -0.0053689231872558595 0.0
   vertex -0.006178410530090332 -0.0053689231872558595 -0.001
  endloop
 endfacet
 facet normal -0.7852047681808472 -0.619236171245575 0.0
  outer loop
   vertex -0.006107131958007813 -0.005472014427185059 0.0
   vertex -0.006146014213562012 -0.00542271089553833 0.0
   vertex -0.006146014213562012 -0.00542271089553833 -0.001
  endloop
 endfacet
 facet normal -0.7852047681808472 -0.619236171245575 -0.0
  outer loop
   vertex -0.006107131958007813 -0.005472014427185059 0.0
   vertex -0.006146014213562012 -0.00542271089553833 -0.001
   vertex -0.006107131958007813 -0.005472014427185059 -0.001
  endloop
 endfacet
 facet normal -0.7013997435569763 -0.7127681374549866 0.0
  outer loop
   vertex -0.006062376976013184 -0.005516055583953857 0.0
   vertex -0.006107131958007813 -0.005472014427185059 0.0
   vertex -0.006107131958007813 -0.005472014427185059 -0.001
  endloop
 endfacet
 facet normal -0.7013997435569763 -0.7127681374549866 -0.0
  outer loop
   vertex -0.006062376976013184 -0.005516055583953857 0.0
   vertex -0.006107131958007813 -0.005472014427185059 -0.001
   vertex -0.006062376976013184 -0.005516055583953857 -0.001
  endloop
 endfacet
 facet normal -0.606538712978363 -0.7950539588928223 0.0
  outer loop
   vertex -0.006012454986572266 -0.005554140567779541 0.0
   vertex -0.006062376976013184 -0.005516055583953857 0.0
   vertex -0.006062376976013184 -0.005516055583953857 -0.001
  endloop
 endfacet
 facet normal -0.606538712978363 -0.7950539588928223 -0.0
  outer loop
   vertex -0.006012454986572266 -0.005554140567779541 0.0
   vertex -0.006062376976013184 -0.005516055583953857 -0.001
   vertex -0.006012454986572266 -0.005554140567779541 -0.001
  endloop
 endfacet
 facet normal -0.5021054744720459 -0.8648063540458679 0.0
  outer loop
   vertex -0.005958153247833252 -0.005585668087005616 0.0
   vertex -0.006012454986572266 -0.005554140567779541 0.0
   vertex -0.006012454986572266 -0.005554140567779541 -0.001
  endloop
 endfacet
 facet normal -0.5021054744720459 -0.8648063540458679 -0.0
  outer loop
   vertex -0.005958153247833252 -0.005585668087005616 0.0
   vertex -0.006012454986572266 -0.005554140567779541 -0.001
   vertex -0.005958153247833252 -0.005585668087005616 -0.001
  endloop
 endfacet
 facet normal -0.3897606134414673 -0.9209161400794983 0.0
  outer loop
   vertex -0.005900328636169434 -0.005610141277313232 0.0
   vertex -0.005958153247833252 -0.005585668087005616 0.0
   vertex -0.005958153247833252 -0.005585668087005616 -0.001
  endloop
 endfacet
 facet normal -0.3897606134414673 -0.9209161400794983 -0.0
  outer loop
   vertex -0.005900328636169434 -0.005610141277313232 0.0
   vertex -0.005958153247833252 -0.005585668087005616 -0.001
   vertex -0.005900328636169434 -0.005610141277313232 -0.001
  endloop
 endfacet
 facet normal -0.2712610363960266 -0.9625058174133301 0.0
  outer loop
   vertex -0.005839892387390137 -0.005627173900604248 0.0
   vertex -0.005900328636169434 -0.005610141277313232 0.0
   vertex -0.005900328636169434 -0.005610141277313232 -0.001
  endloop
 endfacet
 facet normal -0.2712610363960266 -0.9625058174133301 -0.0
  outer loop
   vertex -0.005839892387390137 -0.005627173900604248 0.0
   vertex -0.005900328636169434 -0.005610141277313232 -0.001
   vertex -0.005839892387390137 -0.005627173900604248 -0.001
  endloop
 endfacet
 facet normal -0.14849531650543213 -0.9889131784439087 0.0
  outer loop
   vertex -0.005777798175811768 -0.005636497974395752 0.0
   vertex -0.005839892387390137 -0.005627173900604248 0.0
   vertex -0.005839892387390137 -0.005627173900604248 -0.001
  endloop
 endfacet
 facet normal -0.14849531650543213 -0.9889131784439087 -0.0
  outer loop
   vertex -0.005777798175811768 -0.005636497974395752 0.0
   vertex -0.005839892387390137 -0.005627173900604248 -0.001
   vertex -0.005777798175811768 -0.005636497974395752 -0.001
  endloop
 endfacet
 facet normal -0.023374496027827263 -0.9997267127037048 -0.0
  outer loop
   vertex -0.005715024471282959 -0.005637965679168701 0.0
   vertex -0.005777798175811768 -0.005636497974395752 -0.001
   vertex -0.005715024471282959 -0.005637965679168701 -0.001
  endloop
 endfacet
 facet normal -0.023374496027827263 -0.9997267127037048 0.0
  outer loop
   vertex -0.005715024471282959 -0.005637965679168701 0.0
   vertex -0.005777798175811768 -0.005636497974395752 0.0
   vertex -0.005777798175811768 -0.005636497974395752 -0.001
  endloop
 endfacet
 facet normal 0.10210266709327698 -0.9947738647460938 0.0
  outer loop
   vertex -0.0056525621414184575 -0.00563155460357666 0.0
   vertex -0.005715024471282959 -0.005637965679168701 -0.001
   vertex -0.0056525621414184575 -0.00563155460357666 -0.001
  endloop
 endfacet
 facet normal 0.10210266709327698 -0.9947738647460938 0.0
  outer loop
   vertex -0.0056525621414184575 -0.00563155460357666 0.0
   vertex -0.005715024471282959 -0.005637965679168701 0.0
   vertex -0.005715024471282959 -0.005637965679168701 -0.001
  endloop
 endfacet
 facet normal 0.22598469257354736 -0.9741308689117432 0.0
  outer loop
   vertex -0.005591395854949951 -0.005617364883422852 0.0
   vertex -0.0056525621414184575 -0.00563155460357666 -0.001
   vertex -0.005591395854949951 -0.005617364883422852 -0.001
  endloop
 endfacet
 facet normal 0.22598469257354736 -0.9741308689117432 0.0
  outer loop
   vertex -0.005591395854949951 -0.005617364883422852 0.0
   vertex -0.0056525621414184575 -0.00563155460357666 0.0
   vertex -0.0056525621414184575 -0.00563155460357666 -0.001
  endloop
 endfacet
 facet normal 0.346283495426178 -0.9381299018859863 0.0
  outer loop
   vertex -0.005532490253448486 -0.0055956215858459476 0.0
   vertex -0.005591395854949951 -0.005617364883422852 -0.001
   vertex -0.005532490253448486 -0.0055956215858459476 -0.001
  endloop
 endfacet
 facet normal 0.4611382484436035 -0.8873282670974731 0.0
  outer loop
   vertex -0.005532490253448486 -0.0055956215858459476 0.0
   vertex -0.005532490253448486 -0.0055956215858459476 -0.001
   vertex -0.005476774692535401 -0.005566666603088379 -0.001
  endloop
 endfacet
 facet normal 0.346283495426178 -0.9381299018859863 0.0
  outer loop
   vertex -0.005532490253448486 -0.0055956215858459476 0.0
   vertex -0.005591395854949951 -0.005617364883422852 0.0
   vertex -0.005591395854949951 -0.005617364883422852 -0.001
  endloop
 endfacet
 facet normal 0.4611382484436035 -0.8873282670974731 0.0
  outer loop
   vertex -0.005476774692535401 -0.005566666603088379 0.0
   vertex -0.005532490253448486 -0.0055956215858459476 0.0
   vertex -0.005476774692535401 -0.005566666603088379 -0.001
  endloop
 endfacet
 facet normal 0.5687123537063599 -0.8225365281105042 0.0
  outer loop
   vertex -0.005425127029418946 -0.005530956745147705 0.0
   vertex -0.005476774692535401 -0.005566666603088379 -0.001
   vertex -0.005425127029418946 -0.005530956745147705 -0.001
  endloop
 endfacet
 facet normal 0.5687123537063599 -0.8225365281105042 0.0
  outer loop
   vertex -0.005425127029418946 -0.005530956745147705 0.0
   vertex -0.005476774692535401 -0.005566666603088379 0.0
   vertex -0.005476774692535401 -0.005566666603088379 -0.001
  endloop
 endfacet
 facet normal 0.6673191785812378 -0.7447717785835266 0.0
  outer loop
   vertex -0.005378362655639649 -0.005489055633544922 0.0
   vertex -0.005425127029418946 -0.005530956745147705 -0.001
   vertex -0.005378362655639649 -0.005489055633544922 -0.001
  endloop
 endfacet
 facet normal 0.7554031014442444 -0.6552603244781494 0.0
  outer loop
   vertex -0.005378362655639649 -0.005489055633544922 0.0
   vertex -0.005378362655639649 -0.005489055633544922 -0.001
   vertex -0.005337218284606934 -0.0054416232109069824 -0.001
  endloop
 endfacet
 facet normal 0.6673191785812378 -0.7447717785835266 0.0
  outer loop
   vertex -0.005378362655639649 -0.005489055633544922 0.0
   vertex -0.005425127029418946 -0.005530956745147705 0.0
   vertex -0.005425127029418946 -0.005530956745147705 -0.001
  endloop
 endfacet
 facet normal 0.7554031014442444 -0.6552603244781494 0.0
  outer loop
   vertex -0.005337218284606934 -0.0054416232109069824 0.0
   vertex -0.005378362655639649 -0.005489055633544922 0.0
   vertex -0.005337218284606934 -0.0054416232109069824 -0.001
  endloop
 endfacet
 facet normal 0.8315710425376892 -0.5554185509681702 0.0
  outer loop
   vertex -0.005302343368530273 -0.005389408588409424 0.0
   vertex -0.005337218284606934 -0.0054416232109069824 -0.001
   vertex -0.005302343368530273 -0.005389408588409424 -0.001
  endloop
 endfacet
 facet normal 0.8315710425376892 -0.5554185509681702 0.0
  outer loop
   vertex -0.005302343368530273 -0.005389408588409424 0.0
   vertex -0.005337218284606934 -0.0054416232109069824 0.0
   vertex -0.005337218284606934 -0.0054416232109069824 -0.001
  endloop
 endfacet
 facet normal 0.8946260213851929 -0.4468156099319458 0.0
  outer loop
   vertex -0.005274287700653076 -0.005333234786987304 0.0
   vertex -0.005302343368530273 -0.005389408588409424 -0.001
   vertex -0.005274287700653076 -0.005333234786987304 -0.001
  endloop
 endfacet
 facet normal 0.8946260213851929 -0.4468156099319458 0.0
  outer loop
   vertex -0.005274287700653076 -0.005333234786987304 0.0
   vertex -0.005302343368530273 -0.005389408588409424 0.0
   vertex -0.005302343368530273 -0.005389408588409424 -0.001
  endloop
 endfacet
 facet normal 0.943571150302887 -0.3311699330806732 0.0
  outer loop
   vertex -0.005253493309020996 -0.005273987293243409 0.0
   vertex -0.005274287700653076 -0.005333234786987304 -0.001
   vertex -0.005253493309020996 -0.005273987293243409 -0.001
  endloop
 endfacet
 facet normal 0.9776395559310913 -0.21028777956962585 0.0
  outer loop
   vertex -0.005253493309020996 -0.005273987293243409 0.0
   vertex -0.005253493309020996 -0.005273987293243409 -0.001
   vertex -0.005240289211273194 -0.0052126007080078125 -0.001
  endloop
 endfacet
 facet normal 0.943571150302887 -0.3311699330806732 0.0
  outer loop
   vertex -0.005253493309020996 -0.005273987293243409 0.0
   vertex -0.005274287700653076 -0.005333234786987304 0.0
   vertex -0.005274287700653076 -0.005333234786987304 -0.001
  endloop
 endfacet
 facet normal 0.9776395559310913 -0.21028777956962585 0.0
  outer loop
   vertex -0.005240289211273194 -0.0052126007080078125 0.0
   vertex -0.005253493309020996 -0.005273987293243409 0.0
   vertex -0.005240289211273194 -0.0052126007080078125 -0.001
  endloop
 endfacet
 facet normal 0.9962856769561768 -0.08610954135656357 0.0
  outer loop
   vertex -0.005234882354736329 -0.0051500434875488285 0.0
   vertex -0.005240289211273194 -0.0052126007080078125 -0.001
   vertex -0.005234882354736329 -0.0051500434875488285 -0.001
  endloop
 endfacet
 facet normal 0.9962856769561768 -0.08610954135656357 0.0
  outer loop
   vertex -0.005234882354736329 -0.0051500434875488285 0.0
   vertex -0.005240289211273194 -0.0052126007080078125 0.0
   vertex -0.005240289211273194 -0.0052126007080078125 -0.001
  endloop
 endfacet
 facet normal 0.9992217421531677 0.03944366052746773 0.0
  outer loop
   vertex -0.005237359046936035 -0.005087301731109619 0.0
   vertex -0.005234882354736329 -0.0051500434875488285 -0.001
   vertex -0.005237359046936035 -0.005087301731109619 -0.001
  endloop
 endfacet
 facet normal 0.9992217421531677 0.03944366052746773 0.0
  outer loop
   vertex -0.005237359046936035 -0.005087301731109619 0.0
   vertex -0.005234882354736329 -0.0051500434875488285 0.0
   vertex -0.005234882354736329 -0.0051500434875488285 -0.001
  endloop
 endfacet
 facet normal 0.9863992929458618 0.1643669754266739 0.0
  outer loop
   vertex -0.005247679710388184 -0.005025365352630615 0.0
   vertex -0.005237359046936035 -0.005087301731109619 -0.001
   vertex -0.005247679710388184 -0.005025365352630615 -0.001
  endloop
 endfacet
 facet normal 0.9863992929458618 0.1643669754266739 0.0
  outer loop
   vertex -0.005247679710388184 -0.005025365352630615 0.0
   vertex -0.005237359046936035 -0.005087301731109619 0.0
   vertex -0.005237359046936035 -0.005087301731109619 -0.001
  endloop
 endfacet
 facet normal 0.9580208659172058 0.28669849038124084 0.0
  outer loop
   vertex -0.005265681743621826 -0.004965210437774658 0.0
   vertex -0.005247679710388184 -0.005025365352630615 -0.001
   vertex -0.005265681743621826 -0.004965210437774658 -0.001
  endloop
 endfacet
 facet normal 0.9580208659172058 0.28669849038124084 0.0
  outer loop
   vertex -0.005265681743621826 -0.004965210437774658 0.0
   vertex -0.005247679710388184 -0.005025365352630615 0.0
   vertex -0.005247679710388184 -0.005025365352630615 -0.001
  endloop
 endfacet
 facet normal 0.9145334959030151 0.40451017022132874 0.0
  outer loop
   vertex -0.005291080951690674 -0.004907786846160889 0.0
   vertex -0.005265681743621826 -0.004965210437774658 -0.001
   vertex -0.005291080951690674 -0.004907786846160889 -0.001
  endloop
 endfacet
 facet normal 0.9145334959030151 0.40451017022132874 0.0
  outer loop
   vertex -0.005291080951690674 -0.004907786846160889 0.0
   vertex -0.005265681743621826 -0.004965210437774658 0.0
   vertex -0.005265681743621826 -0.004965210437774658 -0.001
  endloop
 endfacet
 facet normal 0.8566246032714844 0.5159400701522827 0.0
  outer loop
   vertex -0.005323477268218994 -0.00485399866104126 0.0
   vertex -0.005291080951690674 -0.004907786846160889 0.0
   vertex -0.005291080951690674 -0.004907786846160889 -0.001
  endloop
 endfacet
 facet normal 0.8566246032714844 0.5159400701522827 0.0
  outer loop
   vertex -0.005323477268218994 -0.00485399866104126 0.0
   vertex -0.005291080951690674 -0.004907786846160889 -0.001
   vertex -0.005323477268218994 -0.00485399866104126 -0.001
  endloop
 endfacet
 facet normal 0.7852017879486084 0.619239866733551 0.0
  outer loop
   vertex -0.005362359523773194 -0.004804695606231689 0.0
   vertex -0.005323477268218994 -0.00485399866104126 0.0
   vertex -0.005323477268218994 -0.00485399866104126 -0.001
  endloop
 endfacet
 facet normal 0.7852017879486084 0.619239866733551 0.0
  outer loop
   vertex -0.005362359523773194 -0.004804695606231689 0.0
   vertex -0.005323477268218994 -0.00485399866104126 -0.001
   vertex -0.005362359523773194 -0.004804695606231689 -0.001
  endloop
 endfacet
endsolid patch_0_0
