solid patch_3_0
 facet normal -9.999997283417859e-15 1.0 9.99999791869257e-16
  outer loop
   vertex -0.0005 1.0000000036274937e-18 0.0
   vertex -0.0006000000238418579 0.0 0.0
   vertex 0.0 1.0000000036274937e-18 0.005
  endloop
 endfacet
 facet normal 1.0000000036274937e-15 1.0 -3.199999948080509e-16
  outer loop
   vertex -0.0006000000238418579 0.0 0.0
   vertex -0.001600000023841858 1.0000000036274937e-18 0.0
   vertex 0.0 1.0000000036274937e-18 0.005
  endloop
 endfacet
 facet normal -9.999997283417859e-15 1.0 3.19999920692668e-15
  outer loop
   vertex -0.001600000023841858 1.0000000036274937e-18 0.0
   vertex -0.0017000000476837158 0.0 0.0
   vertex 0.0 1.0000000036274937e-18 0.005
  endloop
 endfacet
 facet normal 1.0000000036274937e-15 1.0 -0.0
  outer loop
   vertex -0.0006000000238418579 0.0 -0.001
   vertex -0.001600000023841858 1.0000000036274937e-18 -0.001
   vertex -0.0006000000238418579 0.0 0.0
  endloop
 endfacet
 facet normal 1.0000000036274937e-15 1.0 0.0
  outer loop
   vertex -0.0006000000238418579 0.0 0.0
   vertex -0.001600000023841858 1.0000000036274937e-18 -0.001
   vertex -0.001600000023841858 1.0000000036274937e-18 0.0
  endloop
 endfacet
 facet normal 1.0000000036274937e-15 1.0 -5.400000210170879e-16
  outer loop
   vertex -0.0017000000476837158 0.0 0.0
   vertex -0.002700000047683716 1.0000000036274937e-18 0.0
   vertex 0.0 1.0000000036274937e-18 0.005
  endloop
 endfacet
 facet normal -1.000000914187912e-14 1.0 5.400005292368563e-15
  outer loop
   vertex -0.002700000047683716 1.0000000036274937e-18 0.0
   vertex -0.002799999952316284 0.0 0.0
   vertex 0.0 1.0000000036274937e-18 0.005
  endloop
 endfacet
 facet normal 1.0000000036274937e-15 1.0 -0.0
  outer loop
   vertex -0.0017000000476837158 0.0 -0.001
   vertex -0.002700000047683716 1.0000000036274937e-18 -0.001
   vertex -0.0017000000476837158 0.0 0.0
  endloop
 endfacet
 facet normal 1.0000000036274937e-15 1.0 0.0
  outer loop
   vertex -0.0017000000476837158 0.0 0.0
   vertex -0.002700000047683716 1.0000000036274937e-18 -0.001
   vertex -0.002700000047683716 1.0000000036274937e-18 0.0
  endloop
 endfacet
 facet normal 1.0000000036274937e-15 1.0 -0.0
  outer loop
   vertex -0.002799999952316284 0.0 -0.001
   vertex -0.003799999952316284 1.0000000036274937e-18 0.0
   vertex -0.002799999952316284 0.0 0.0
  endloop
 endfacet
 facet normal 1.0000000036274937e-15 1.0 -7.599999942865658e-16
  outer loop
   vertex -0.002799999952316284 0.0 0.0
   vertex -0.003799999952316284 1.0000000036274937e-18 0.0
   vertex 0.0 1.0000000036274937e-18 0.005
  endloop
 endfacet
 facet normal -9.999985424956597e-15 1.0 7.599988719679106e-15
  outer loop
   vertex -0.003799999952316284 1.0000000036274937e-18 0.0
   vertex -0.0039000000953674317 0.0 0.0
   vertex 0.0 1.0000000036274937e-18 0.005
  endloop
 endfacet
 facet normal 1.0000000036274937e-15 1.0 0.0
  outer loop
   vertex -0.002799999952316284 0.0 -0.001
   vertex -0.003799999952316284 1.0000000036274937e-18 -0.001
   vertex -0.003799999952316284 1.0000000036274937e-18 0.0
  endloop
 endfacet
 facet normal 1.0000000036274937e-15 1.0 -9.799999675560436e-16
  outer loop
   vertex -0.0039000000953674317 0.0 0.0
   vertex -0.004900000095367432 1.0000000036274937e-18 0.0
   vertex 0.0 1.0000000036274937e-18 0.005
  endloop
 endfacet
 facet normal -1.000000914187912e-14 1.0 9.80000941643933e-15
  outer loop
   vertex -0.004900000095367432 1.0000000036274937e-18 0.0
   vertex -0.005 0.0 0.0
   vertex 0.0 1.0000000036274937e-18 0.005
  endloop
 endfacet
 facet normal 0.0 1.0 -2.000000033724767e-16
  outer loop
   vertex -0.005 0.0 0.0
   vertex -0.0105 1.0000000036274937e-18 0.005
   vertex 0.0 1.0000000036274937e-18 0.005
  endloop
 endfacet
 facet normal 1.0000000036274937e-15 1.0 -0.0
  outer loop
   vertex -0.0039000000953674317 0.0 -0.001
   vertex -0.004900000095367432 1.0000000036274937e-18 -0.001
   vertex -0.0039000000953674317 0.0 0.0
  endloop
 endfacet
 facet normal 1.0000000036274937e-15 1.0 0.0
  outer loop
   vertex -0.0039000000953674317 0.0 0.0
   vertex -0.004900000095367432 1.0000000036274937e-18 -0.001
   vertex -0.004900000095367432 1.0000000036274937e-18 0.0
  endloop
 endfacet
 facet normal 1.0000000036274937e-15 1.0 9.000000350284799e-16
  outer loop
   vertex -0.005 0.0 0.0
   vertex -0.006 1.0000000036274937e-18 0.0
   vertex -0.0105 1.0000000036274937e-18 0.005
  endloop
 endfacet
 facet normal -1.000000914187912e-14 1.0 -9.000008820614271e-15
  outer loop
   vertex -0.006 1.0000000036274937e-18 0.0
   vertex -0.0060999999046325686 0.0 0.0
   vertex -0.0105 1.0000000036274937e-18 0.005
  endloop
 endfacet
 facet normal 1.0000000036274937e-15 1.0 0.0
  outer loop
   vertex -0.005 0.0 0.0
   vertex -0.006 1.0000000036274937e-18 -0.001
   vertex -0.006 1.0000000036274937e-18 0.0
  endloop
 endfacet
 facet normal 1.0000000036274937e-15 1.0 -0.0
  outer loop
   vertex -0.005 0.0 -0.001
   vertex -0.006 1.0000000036274937e-18 -0.001
   vertex -0.005 0.0 0.0
  endloop
 endfacet
 facet normal 1.0000000036274937e-15 1.0 6.80000061759002e-16
  outer loop
   vertex -0.0060999999046325686 0.0 0.0
   vertex -0.007099999904632569 1.0000000036274937e-18 0.0
   vertex -0.0105 1.0000000036274937e-18 0.005
  endloop
 endfacet
 facet normal 1.0000000036274937e-15 1.0 0.0
  outer loop
   vertex -0.0060999999046325686 0.0 0.0
   vertex -0.0060999999046325686 0.0 -0.001
   vertex -0.007099999904632569 1.0000000036274937e-18 0.0
  endloop
 endfacet
 facet normal -1.000000914187912e-14 1.0 -6.800006758578888e-15
  outer loop
   vertex -0.007099999904632569 1.0000000036274937e-18 0.0
   vertex -0.007199999809265137 0.0 0.0
   vertex -0.0105 1.0000000036274937e-18 0.005
  endloop
 endfacet
 facet normal 1.0000000036274937e-15 1.0 0.0
  outer loop
   vertex -0.0060999999046325686 0.0 -0.001
   vertex -0.007099999904632569 1.0000000036274937e-18 -0.001
   vertex -0.007099999904632569 1.0000000036274937e-18 0.0
  endloop
 endfacet
 facet normal 1.0000000036274937e-15 1.0 4.60000035549965e-16
  outer loop
   vertex -0.007199999809265137 0.0 0.0
   vertex -0.008199999809265137 1.0000000036274937e-18 0.0
   vertex -0.0105 1.0000000036274937e-18 0.005
  endloop
 endfacet
 facet normal 1.0000000036274937e-15 1.0 -0.0
  outer loop
   vertex -0.007199999809265137 0.0 -0.001
   vertex -0.008199999809265137 1.0000000036274937e-18 0.0
   vertex -0.007199999809265137 0.0 0.0
  endloop
 endfacet
 facet normal -9.999961708034074e-15 1.0 -4.59998309720335e-15
  outer loop
   vertex -0.008199999809265137 1.0000000036274937e-18 0.0
   vertex -0.008300000190734864 0.0 0.0
   vertex -0.0105 1.0000000036274937e-18 0.005
  endloop
 endfacet
 facet normal 1.0000000036274937e-15 1.0 0.0
  outer loop
   vertex -0.007199999809265137 0.0 -0.001
   vertex -0.008199999809265137 1.0000000036274937e-18 -0.001
   vertex -0.008199999809265137 1.0000000036274937e-18 0.0
  endloop
 endfacet
 facet normal 1.0000000036274937e-15 1.0 2.3999995640136876e-16
  outer loop
   vertex -0.008300000190734864 0.0 0.0
   vertex -0.009300000190734863 1.0000000036274937e-18 0.0
   vertex -0.0105 1.0000000036274937e-18 0.005
  endloop
 endfacet
 facet normal -1.0000057422757114e-14 1.0 -2.400013434178199e-15
  outer loop
   vertex -0.009300000190734863 1.0000000036274937e-18 0.0
   vertex -0.009399999618530273 0.0 0.0
   vertex -0.0105 1.0000000036274937e-18 0.005
  endloop
 endfacet
 facet normal 1.0000000036274937e-15 1.0 0.0
  outer loop
   vertex -0.008300000190734864 0.0 0.0
   vertex -0.009300000190734863 1.0000000036274937e-18 -0.001
   vertex -0.009300000190734863 1.0000000036274937e-18 0.0
  endloop
 endfacet
 facet normal 1.0000000036274937e-15 1.0 -0.0
  outer loop
   vertex -0.008300000190734864 0.0 -0.001
   vertex -0.009300000190734863 1.0000000036274937e-18 -0.001
   vertex -0.008300000190734864 0.0 0.0
  endloop
 endfacet
 facet normal 1.0000000036274937e-15 1.0 2.0000079084841986e-17
  outer loop
   vertex -0.009399999618530273 0.0 0.0
   vertex -0.010399999618530274 1.0000000036274937e-18 0.0
   vertex -0.0105 1.0000000036274937e-18 0.005
  endloop
 endfacet
 facet normal 0.0 1.0 0.0
  outer loop
   vertex -0.010399999618530274 1.0000000036274937e-18 0.0
   vertex -0.0105 1.0000000036274937e-18 0.0
   vertex -0.0105 1.0000000036274937e-18 0.005
  endloop
 endfacet
 facet normal 1.0000000036274937e-15 1.0 -0.0
  outer loop
   vertex -0.009399999618530273 0.0 -0.001
   vertex -0.010399999618530274 1.0000000036274937e-18 -0.001
   vertex -0.009399999618530273 0.0 0.0
  endloop
 endfacet
 facet normal 1.0000000036274937e-15 1.0 0.0
  outer loop
   vertex -0.009399999618530273 0.0 0.0
   vertex -0.010399999618530274 1.0000000036274937e-18 -0.001
   vertex -0.010399999618530274 1.0000000036274937e-18 0.0
  endloop
 endfacet
 facet normal -9.999997283417859e-15 1.0 3.8461529438441435e-16
  outer loop
   vertex -0.0005 1.0000000036274937e-18 -0.001
   vertex -0.001 1.0000000036274937e-18 -0.014
   vertex -0.0006000000238418579 0.0 -0.001
  endloop
 endfacet
 facet normal 0.0 1.0 0.0
  outer loop
   vertex -0.0005 1.0000000036274937e-18 -0.001
   vertex 0.0 1.0000000036274937e-18 -0.015
   vertex -0.001 1.0000000036274937e-18 -0.014
  endloop
 endfacet
 facet normal 0.0 1.0 7.692307211177267e-17
  outer loop
   vertex -0.001 1.0000000036274937e-18 -0.014
   vertex -0.001100000023841858 1.0000000036274937e-18 -0.014
   vertex -0.0006000000238418579 0.0 -0.001
  endloop
 endfacet
 facet normal -9.999997283417859e-15 1.0 -3.8461529438441435e-16
  outer loop
   vertex -0.001600000023841858 1.0000000036274937e-18 -0.001
   vertex -0.001100000023841858 1.0000000036274937e-18 -0.014
   vertex -0.0017000000476837158 0.0 -0.001
  endloop
 endfacet
 facet normal 1.0000000036274937e-15 1.0 3.8461539364608786e-17
  outer loop
   vertex -0.0006000000238418579 0.0 -0.001
   vertex -0.001100000023841858 1.0000000036274937e-18 -0.014
   vertex -0.001600000023841858 1.0000000036274937e-18 -0.001
  endloop
 endfacet
 facet normal 0.0 1.0 0.0
  outer loop
   vertex 0.0 1.0000000036274937e-18 -0.015
   vertex -0.001 1.0000000036274937e-18 -0.015
   vertex -0.001 1.0000000036274937e-18 -0.014
  endloop
 endfacet
 facet normal -1.000000914187912e-14 1.0 3.076924737355479e-16
  outer loop
   vertex -0.002700000047683716 1.0000000036274937e-18 -0.001
   vertex -0.0030999999046325685 1.0000000036274937e-18 -0.014
   vertex -0.002799999952316284 0.0 -0.001
  endloop
 endfacet
 facet normal 1.0000000036274937e-15 1.0 -3.076921958028621e-17
  outer loop
   vertex -0.0017000000476837158 0.0 -0.001
   vertex -0.0030999999046325685 1.0000000036274937e-18 -0.014
   vertex -0.002700000047683716 1.0000000036274937e-18 -0.001
  endloop
 endfacet
 facet normal 0.0 1.0 7.692307211177267e-17
  outer loop
   vertex -0.001100000023841858 1.0000000036274937e-18 -0.014
   vertex -0.0030999999046325685 1.0000000036274937e-18 -0.014
   vertex -0.0017000000476837158 0.0 -0.001
  endloop
 endfacet
 facet normal 0.0 1.0 7.692307211177267e-17
  outer loop
   vertex -0.0030999999046325685 1.0000000036274937e-18 -0.014
   vertex -0.003200000047683716 1.0000000036274937e-18 -0.014
   vertex -0.002799999952316284 0.0 -0.001
  endloop
 endfacet
 facet normal -9.999985424956597e-15 1.0 -4.615377179865868e-16
  outer loop
   vertex -0.003799999952316284 1.0000000036274937e-18 -0.001
   vertex -0.003200000047683716 1.0000000036274937e-18 -0.014
   vertex -0.0039000000953674317 0.0 -0.001
  endloop
 endfacet
 facet normal 1.0000000036274937e-15 1.0 4.615383929659666e-17
  outer loop
   vertex -0.002799999952316284 0.0 -0.001
   vertex -0.003200000047683716 1.0000000036274937e-18 -0.014
   vertex -0.003799999952316284 1.0000000036274937e-18 -0.001
  endloop
 endfacet
 facet normal 0.0 1.0 -0.0
  outer loop
   vertex -0.001100000023841858 1.0000000036274937e-18 -0.015
   vertex -0.0030999999046325685 1.0000000036274937e-18 -0.015
   vertex -0.001100000023841858 1.0000000036274937e-18 -0.014
  endloop
 endfacet
 facet normal 0.0 1.0 0.0
  outer loop
   vertex -0.001100000023841858 1.0000000036274937e-18 -0.014
   vertex -0.0030999999046325685 1.0000000036274937e-18 -0.015
   vertex -0.0030999999046325685 1.0000000036274937e-18 -0.014
  endloop
 endfacet
 facet normal -1.000000914187912e-14 1.0 2.307692295702078e-16
  outer loop
   vertex -0.004900000095367432 1.0000000036274937e-18 -0.001
   vertex -0.005199999809265137 1.0000000036274937e-18 -0.014
   vertex -0.005 0.0 -0.001
  endloop
 endfacet
 facet normal 0.0 1.0 7.692307872921757e-17
  outer loop
   vertex -0.003200000047683716 1.0000000036274937e-18 -0.014
   vertex -0.005199999809265137 1.0000000036274937e-18 -0.014
   vertex -0.0039000000953674317 0.0 -0.001
  endloop
 endfacet
 facet normal 1.0000000036274937e-15 1.0 -2.307689979596363e-17
  outer loop
   vertex -0.0039000000953674317 0.0 -0.001
   vertex -0.005199999809265137 1.0000000036274937e-18 -0.014
   vertex -0.004900000095367432 1.0000000036274937e-18 -0.001
  endloop
 endfacet
 facet normal 1.0000000036274937e-15 1.0 5.384613591986209e-17
  outer loop
   vertex -0.005 0.0 -0.001
   vertex -0.005300000190734864 1.0000000036274937e-18 -0.014
   vertex -0.006 1.0000000036274937e-18 -0.001
  endloop
 endfacet
 facet normal 0.0 1.0 7.692307211177267e-17
  outer loop
   vertex -0.005199999809265137 1.0000000036274937e-18 -0.014
   vertex -0.005300000190734864 1.0000000036274937e-18 -0.014
   vertex -0.005 0.0 -0.001
  endloop
 endfacet
 facet normal -1.000000914187912e-14 1.0 -5.384619150639925e-16
  outer loop
   vertex -0.006 1.0000000036274937e-18 -0.001
   vertex -0.005300000190734864 1.0000000036274937e-18 -0.014
   vertex -0.0060999999046325686 0.0 -0.001
  endloop
 endfacet
 facet normal 0.0 1.0 -0.0
  outer loop
   vertex -0.003200000047683716 1.0000000036274937e-18 -0.015
   vertex -0.005199999809265137 1.0000000036274937e-18 -0.015
   vertex -0.003200000047683716 1.0000000036274937e-18 -0.014
  endloop
 endfacet
 facet normal 0.0 1.0 0.0
  outer loop
   vertex -0.003200000047683716 1.0000000036274937e-18 -0.014
   vertex -0.005199999809265137 1.0000000036274937e-18 -0.015
   vertex -0.005199999809265137 1.0000000036274937e-18 -0.014
  endloop
 endfacet
 facet normal 0.0 1.0 7.692307872921757e-17
  outer loop
   vertex -0.005300000190734864 1.0000000036274937e-18 -0.014
   vertex -0.007300000190734864 1.0000000036274937e-18 -0.014
   vertex -0.0060999999046325686 0.0 -0.001
  endloop
 endfacet
 facet normal -1.000000914187912e-14 1.0 1.5384651480045977e-16
  outer loop
   vertex -0.007099999904632569 1.0000000036274937e-18 -0.001
   vertex -0.007300000190734864 1.0000000036274937e-18 -0.014
   vertex -0.007199999809265137 0.0 -0.001
  endloop
 endfacet
 facet normal 1.0000000036274937e-15 1.0 -1.538463460556148e-17
  outer loop
   vertex -0.0060999999046325686 0.0 -0.001
   vertex -0.007300000190734864 1.0000000036274937e-18 -0.014
   vertex -0.007099999904632569 1.0000000036274937e-18 -0.001
  endloop
 endfacet
 facet normal 1.0000000036274937e-15 1.0 6.153843916057242e-17
  outer loop
   vertex -0.007199999809265137 0.0 -0.001
   vertex -0.007400000095367432 1.0000000036274937e-18 -0.014
   vertex -0.008199999809265137 1.0000000036274937e-18 -0.001
  endloop
 endfacet
 facet normal -9.999961708034074e-15 1.0 -6.153820357953396e-16
  outer loop
   vertex -0.008199999809265137 1.0000000036274937e-18 -0.001
   vertex -0.007400000095367432 1.0000000036274937e-18 -0.014
   vertex -0.008300000190734864 0.0 -0.001
  endloop
 endfacet
 facet normal 0.0 1.0 7.692307211177267e-17
  outer loop
   vertex -0.007300000190734864 1.0000000036274937e-18 -0.014
   vertex -0.007400000095367432 1.0000000036274937e-18 -0.014
   vertex -0.007199999809265137 0.0 -0.001
  endloop
 endfacet
 facet normal 0.0 1.0 -0.0
  outer loop
   vertex -0.005300000190734864 1.0000000036274937e-18 -0.015
   vertex -0.007300000190734864 1.0000000036274937e-18 -0.015
   vertex -0.005300000190734864 1.0000000036274937e-18 -0.014
  endloop
 endfacet
 facet normal 0.0 1.0 0.0
  outer loop
   vertex -0.005300000190734864 1.0000000036274937e-18 -0.014
   vertex -0.007300000190734864 1.0000000036274937e-18 -0.015
   vertex -0.007300000190734864 1.0000000036274937e-18 -0.014
  endloop
 endfacet
 facet normal -1.0000057422757114e-14 1.0 7.692307872921757e-17
  outer loop
   vertex -0.009300000190734863 1.0000000036274937e-18 -0.001
   vertex -0.009399999618530273 1.0000000036274937e-18 -0.014
   vertex -0.009399999618530273 0.0 -0.001
  endloop
 endfacet
 facet normal 1.0000000036274937e-15 1.0 -7.692264363221537e-18
  outer loop
   vertex -0.008300000190734864 0.0 -0.001
   vertex -0.009399999618530273 1.0000000036274937e-18 -0.014
   vertex -0.009300000190734863 1.0000000036274937e-18 -0.001
  endloop
 endfacet
 facet normal 1.0000000036274937e-15 1.0 7.692307872921757e-17
  outer loop
   vertex -0.009399999618530273 0.0 -0.001
   vertex -0.009399999618530273 1.0000000036274937e-18 -0.014
   vertex -0.010399999618530274 1.0000000036274937e-18 -0.001
  endloop
 endfacet
 facet normal 0.0 1.0 7.692307872921757e-17
  outer loop
   vertex -0.007400000095367432 1.0000000036274937e-18 -0.014
   vertex -0.009399999618530273 1.0000000036274937e-18 -0.014
   vertex -0.008300000190734864 0.0 -0.001
  endloop
 endfacet
 facet normal 0.0 1.0 -0.0
  outer loop
   vertex -0.007400000095367432 1.0000000036274937e-18 -0.015
   vertex -0.009399999618530273 1.0000000036274937e-18 -0.015
   vertex -0.007400000095367432 1.0000000036274937e-18 -0.014
  endloop
 endfacet
 facet normal 0.0 1.0 0.0
  outer loop
   vertex -0.007400000095367432 1.0000000036274937e-18 -0.014
   vertex -0.009399999618530273 1.0000000036274937e-18 -0.015
   vertex -0.009399999618530273 1.0000000036274937e-18 -0.014
  endloop
 endfacet
 facet normal 9.999961708034074e-15 1.0 0.0
  outer loop
   vertex -0.010399999618530274 1.0000000036274937e-18 -0.001
   vertex -0.0105 2.0000000072549875e-18 -0.014
   vertex -0.0105 2.0000000072549875e-18 -0.001
  endloop
 endfacet
 facet normal 9.090906043766498e-16 1.0 6.993004750857997e-17
  outer loop
   vertex -0.009399999618530273 1.0000000036274937e-18 -0.014
   vertex -0.0105 2.0000000072549875e-18 -0.014
   vertex -0.010399999618530274 1.0000000036274937e-18 -0.001
  endloop
 endfacet
 facet normal 0.0 1.0 0.0
  outer loop
   vertex 0.0 1.0000000036274937e-18 0.005
   vertex 0.0 1.0000000036274937e-18 -0.015
   vertex -0.0005 1.0000000036274937e-18 0.0
  endloop
 endfacet
 facet normal 0.0 1.0 0.0
  outer loop
   vertex -0.0005 1.0000000036274937e-18 0.0
   vertex 0.0 1.0000000036274937e-18 -0.015
   vertex -0.0005 1.0000000036274937e-18 -0.001
  endloop
 endfacet
 facet normal 0.8660253882408142 -0.5000001192092896 1.1175870895385742e-08
  outer loop
   vertex -0.00030000001192092895 -0.0005196152329444885 0.0
   vertex -0.00025 -0.00043301269412040713 0.0
   vertex 0.0 1.0000000036274937e-18 0.005
  endloop
 endfacet
 facet normal 0.8660253286361694 -0.5 0.0
  outer loop
   vertex -0.000800000011920929 -0.0013856406211853027 0.0
   vertex -0.00030000001192092895 -0.0005196152329444885 0.0
   vertex 0.0 1.0000000036274937e-18 0.005
  endloop
 endfacet
 facet normal 0.8660255074501038 -0.5 -1.4901157641133977e-08
  outer loop
   vertex -0.0008500000238418579 -0.0014722431898117065 0.0
   vertex -0.000800000011920929 -0.0013856406211853027 0.0
   vertex 0.0 1.0000000036274937e-18 0.005
  endloop
 endfacet
 facet normal 0.8660253882408142 -0.5 0.0
  outer loop
   vertex -0.000800000011920929 -0.0013856406211853027 -0.001
   vertex -0.00030000001192092895 -0.0005196152329444885 -0.001
   vertex -0.00030000001192092895 -0.0005196152329444885 0.0
  endloop
 endfacet
 facet normal 0.8660253882408142 -0.5 0.0
  outer loop
   vertex -0.000800000011920929 -0.0013856406211853027 -0.001
   vertex -0.00030000001192092895 -0.0005196152329444885 0.0
   vertex -0.000800000011920929 -0.0013856406211853027 0.0
  endloop
 endfacet
 facet normal 0.8660253286361694 -0.5 0.0
  outer loop
   vertex -0.001350000023841858 -0.002338268518447876 0.0
   vertex -0.0008500000238418579 -0.0014722431898117065 0.0
   vertex 0.0 1.0000000036274937e-18 0.005
  endloop
 endfacet
 facet normal 0.8660253882408142 -0.5000000596046448 0.0
  outer loop
   vertex -0.0008500000238418579 -0.0014722431898117065 -0.001
   vertex -0.0008500000238418579 -0.0014722431898117065 0.0
   vertex -0.001350000023841858 -0.002338268518447876 0.0
  endloop
 endfacet
 facet normal 0.8660259246826172 -0.4999989867210388 -6.258480880205752e-07
  outer loop
   vertex -0.001399999976158142 -0.0024248712062835695 0.0
   vertex -0.001350000023841858 -0.002338268518447876 0.0
   vertex 0.0 1.0000000036274937e-18 0.005
  endloop
 endfacet
 facet normal 0.8660253882408142 -0.5000000596046448 0.0
  outer loop
   vertex -0.001350000023841858 -0.002338268518447876 -0.001
   vertex -0.0008500000238418579 -0.0014722431898117065 -0.001
   vertex -0.001350000023841858 -0.002338268518447876 0.0
  endloop
 endfacet
 facet normal 0.8660253286361694 -0.5000001192092896 7.152559078349441e-08
  outer loop
   vertex -0.001899999976158142 -0.0032908964157104493 0.0
   vertex -0.001399999976158142 -0.0024248712062835695 0.0
   vertex 0.0 1.0000000036274937e-18 0.005
  endloop
 endfacet
 facet normal 0.8660253882408142 -0.49999991059303284 -6.807918850881833e-08
  outer loop
   vertex -0.0019656639099121095 -0.0034046297073364257 0.0
   vertex -0.001899999976158142 -0.0032908964157104493 0.0
   vertex 0.0 1.0000000036274937e-18 0.005
  endloop
 endfacet
 facet normal 0.8660253882408142 -0.5000001192092896 0.0
  outer loop
   vertex -0.001899999976158142 -0.0032908964157104493 -0.001
   vertex -0.001399999976158142 -0.0024248712062835695 -0.001
   vertex -0.001399999976158142 -0.0024248712062835695 0.0
  endloop
 endfacet
 facet normal 0.8660253882408142 -0.5000001192092896 0.0
  outer loop
   vertex -0.001899999976158142 -0.0032908964157104493 -0.001
   vertex -0.001399999976158142 -0.0024248712062835695 0.0
   vertex -0.001899999976158142 -0.0032908964157104493 0.0
  endloop
 endfacet
 facet normal 0.8660255074501038 -0.4999999403953552 -5.129346192234152e-08
  outer loop
   vertex -0.002430476665496826 -0.004209709167480469 0.0
   vertex -0.0019656639099121095 -0.0034046297073364257 0.0
   vertex 0.0 1.0000000036274937e-18 0.005
  endloop
 endfacet
 facet normal 0.8660250306129456 -0.5000005960464478 6.94306379500631e-07
  outer loop
   vertex -0.002516324520111084 -0.004358401775360107 0.0
   vertex -0.002430476665496826 -0.004209709167480469 0.0
   vertex 0.0 1.0000000036274937e-18 0.005
  endloop
 endfacet
 facet normal 0.866025447845459 -0.5000000596046448 0.0
  outer loop
   vertex -0.00525 -0.009093266487121582 0.005
   vertex -0.002516324520111084 -0.004358401775360107 0.0
   vertex 0.0 1.0000000036274937e-18 0.005
  endloop
 endfacet
 facet normal 0.866025447845459 -0.4999999403953552 0.0
  outer loop
   vertex -0.002430476665496826 -0.004209709167480469 -0.001
   vertex -0.0019656639099121095 -0.0034046297073364257 0.0
   vertex -0.002430476665496826 -0.004209709167480469 0.0
  endloop
 endfacet
 facet normal 0.866025447845459 -0.4999999403953552 0.0
  outer loop
   vertex -0.002430476665496826 -0.004209709167480469 -0.001
   vertex -0.0019656639099121095 -0.0034046297073364257 -0.001
   vertex -0.0019656639099121095 -0.0034046297073364257 0.0
  endloop
 endfacet
 facet normal 0.8660253286361694 -0.5000001192092896 -1.283992645539911e-07
  outer loop
   vertex -0.0029805378913879397 -0.005162442684173584 0.0
   vertex -0.002516324520111084 -0.004358401775360107 0.0
   vertex -0.00525 -0.009093266487121582 0.005
  endloop
 endfacet
 facet normal 0.8660256266593933 -0.4999994933605194 4.838178710997454e-07
  outer loop
   vertex -0.003066775321960449 -0.005311810493469239 0.0
   vertex -0.0029805378913879397 -0.005162442684173584 0.0
   vertex -0.00525 -0.009093266487121582 0.005
  endloop
 endfacet
 facet normal 0.8660253286361694 -0.5000001192092896 0.0
  outer loop
   vertex -0.0029805378913879397 -0.005162442684173584 -0.001
   vertex -0.002516324520111084 -0.004358401775360107 0.0
   vertex -0.0029805378913879397 -0.005162442684173584 0.0
  endloop
 endfacet
 facet normal 0.8660253286361694 -0.5000001192092896 0.0
  outer loop
   vertex -0.0029805378913879397 -0.005162442684173584 -0.001
   vertex -0.002516324520111084 -0.004358401775360107 -0.001
   vertex -0.002516324520111084 -0.004358401775360107 0.0
  endloop
 endfacet
 facet normal 0.8660253286361694 -0.5000000596046448 -7.710719529541166e-08
  outer loop
   vertex -0.0035305814743041993 -0.006115146160125732 0.0
   vertex -0.003066775321960449 -0.005311810493469239 0.0
   vertex -0.00525 -0.009093266487121582 0.005
  endloop
 endfacet
 facet normal 0.866025984287262 -0.4999989867210388 7.922363920442876e-07
  outer loop
   vertex -0.00361710262298584 -0.006265005588531494 0.0
   vertex -0.0035305814743041993 -0.006115146160125732 0.0
   vertex -0.00525 -0.009093266487121582 0.005
  endloop
 endfacet
 facet normal 0.8660253286361694 -0.5000000596046448 0.0
  outer loop
   vertex -0.0035305814743041993 -0.006115146160125732 -0.001
   vertex -0.003066775321960449 -0.005311810493469239 0.0
   vertex -0.0035305814743041993 -0.006115146160125732 0.0
  endloop
 endfacet
 facet normal 0.8660253286361694 -0.5000000596046448 0.0
  outer loop
   vertex -0.0035305814743041993 -0.006115146160125732 -0.001
   vertex -0.003066775321960449 -0.005311810493469239 -0.001
   vertex -0.003066775321960449 -0.005311810493469239 0.0
  endloop
 endfacet
 facet normal 0.8660252690315247 -0.5000001788139343 -1.285937258899139e-07
  outer loop
   vertex -0.00408061408996582 -0.007067830562591553 0.0
   vertex -0.00361710262298584 -0.006265005588531494 0.0
   vertex -0.00525 -0.009093266487121582 0.005
  endloop
 endfacet
 facet normal 0.8660255670547485 -0.49999967217445374 1.6268035096800304e-07
  outer loop
   vertex -0.004227170467376709 -0.00732167387008667 0.0
   vertex -0.00408061408996582 -0.007067830562591553 0.0
   vertex -0.00525 -0.009093266487121582 0.005
  endloop
 endfacet
 facet normal 0.8660253286361694 -0.5000000596046448 -1.7637631799516384e-08
  outer loop
   vertex -0.004565110683441162 -0.007907003402709962 0.0
   vertex -0.004227170467376709 -0.00732167387008667 0.0
   vertex -0.00525 -0.009093266487121582 0.005
  endloop
 endfacet
 facet normal 0.8660252690315247 -0.5000001788139343 0.0
  outer loop
   vertex -0.00408061408996582 -0.007067830562591553 -0.001
   vertex -0.00361710262298584 -0.006265005588531494 0.0
   vertex -0.00408061408996582 -0.007067830562591553 0.0
  endloop
 endfacet
 facet normal 0.8660252690315247 -0.5000001788139343 0.0
  outer loop
   vertex -0.00408061408996582 -0.007067830562591553 -0.001
   vertex -0.00361710262298584 -0.006265005588531494 -0.001
   vertex -0.00361710262298584 -0.006265005588531494 0.0
  endloop
 endfacet
 facet normal 0.8660253286361694 -0.5000001192092896 -3.491839350999726e-08
  outer loop
   vertex -0.004778481960296631 -0.008276573181152344 0.0
   vertex -0.004565110683441162 -0.007907003402709962 0.0
   vertex -0.00525 -0.009093266487121582 0.005
  endloop
 endfacet
 facet normal 0.866025447845459 -0.5000000596046448 0.0
  outer loop
   vertex -0.004565110683441162 -0.007907003402709962 -0.001
   vertex -0.004227170467376709 -0.00732167387008667 0.0
   vertex -0.004565110683441162 -0.007907003402709962 0.0
  endloop
 endfacet
 facet normal 0.866025447845459 -0.5000000596046448 0.0
  outer loop
   vertex -0.004565110683441162 -0.007907003402709962 -0.001
   vertex -0.004227170467376709 -0.00732167387008667 -0.001
   vertex -0.004227170467376709 -0.00732167387008667 0.0
  endloop
 endfacet
 facet normal 0.8660257458686829 -0.49999937415122986 1.2413444494541181e-07
  outer loop
   vertex -0.00511459493637085 -0.008858738899230957 0.0
   vertex -0.004778481960296631 -0.008276573181152344 0.0
   vertex -0.00525 -0.009093266487121582 0.005
  endloop
 endfacet
 facet normal 0.8660246133804321 -0.5000013709068298 0.0
  outer loop
   vertex -0.00525 -0.009093266487121582 0.0
   vertex -0.00511459493637085 -0.008858738899230957 0.0
   vertex -0.00525 -0.009093266487121582 0.005
  endloop
 endfacet
 facet normal 0.8660257458686829 -0.49999937415122986 0.0
  outer loop
   vertex -0.00511459493637085 -0.008858738899230957 -0.001
   vertex -0.004778481960296631 -0.008276573181152344 -0.001
   vertex -0.004778481960296631 -0.008276573181152344 0.0
  endloop
 endfacet
 facet normal 0.8660257458686829 -0.49999937415122986 0.0
  outer loop
   vertex -0.00511459493637085 -0.008858738899230957 -0.001
   vertex -0.004778481960296631 -0.008276573181152344 0.0
   vertex -0.00511459493637085 -0.008858738899230957 0.0
  endloop
 endfacet
 facet normal 0.8660253882408142 -0.4999999701976776 0.0
  outer loop
   vertex -0.0005 -0.0008660253882408143 -0.014
   vertex 0.0 1.0000000036274937e-18 -0.015
   vertex -0.00025 -0.00043301269412040713 -0.001
  endloop
 endfacet
 facet normal 0.8660253882408142 -0.5000000596046448 5.731215502180476e-09
  outer loop
   vertex -0.0005 -0.0008660253882408143 -0.014
   vertex -0.00025 -0.00043301269412040713 -0.001
   vertex -0.00030000001192092895 -0.0005196152329444885 -0.001
  endloop
 endfacet
 facet normal 0.8660255074501038 -0.49999991059303284 0.0
  outer loop
   vertex -0.000550000011920929 -0.000952627956867218 -0.014
   vertex -0.000800000011920929 -0.0013856406211853027 -0.001
   vertex -0.0008500000238418579 -0.0014722431898117065 -0.001
  endloop
 endfacet
 facet normal 0.8660253882408142 -0.4999999403953552 0.0
  outer loop
   vertex -0.000550000011920929 -0.000952627956867218 -0.014
   vertex -0.0005 -0.0008660253882408143 -0.014
   vertex -0.00030000001192092895 -0.0005196152329444885 -0.001
  endloop
 endfacet
 facet normal 0.8660253882408142 -0.5 1.1462432114583976e-09
  outer loop
   vertex -0.000550000011920929 -0.000952627956867218 -0.014
   vertex -0.00030000001192092895 -0.0005196152329444885 -0.001
   vertex -0.000800000011920929 -0.0013856406211853027 -0.001
  endloop
 endfacet
 facet normal 0.8660253882408142 -0.5 0.0
  outer loop
   vertex -0.0005 -0.0008660253882408143 -0.015
   vertex 0.0 1.0000000036274937e-18 -0.015
   vertex -0.0005 -0.0008660253882408143 -0.014
  endloop
 endfacet
 facet normal 0.8660260438919067 -0.49999895691871643 -2.5790447111262438e-08
  outer loop
   vertex -0.0015499999523162842 -0.0026846787929534913 -0.014
   vertex -0.001350000023841858 -0.002338268518447876 -0.001
   vertex -0.001399999976158142 -0.0024248712062835695 -0.001
  endloop
 endfacet
 facet normal 0.8660253882408142 -0.5000000596046448 1.0316189680281695e-08
  outer loop
   vertex -0.0015499999523162842 -0.0026846787929534913 -0.014
   vertex -0.0008500000238418579 -0.0014722431898117065 -0.001
   vertex -0.001350000023841858 -0.002338268518447876 -0.001
  endloop
 endfacet
 facet normal 0.866025447845459 -0.4999999403953552 0.0
  outer loop
   vertex -0.0015499999523162842 -0.0026846787929534913 -0.014
   vertex -0.000550000011920929 -0.000952627956867218 -0.014
   vertex -0.0008500000238418579 -0.0014722431898117065 -0.001
  endloop
 endfacet
 facet normal 0.8660253882408142 -0.4999999701976776 8.7281009086837e-09
  outer loop
   vertex -0.001600000023841858 -0.0027712812423706054 -0.014
   vertex -0.001899999976158142 -0.0032908964157104493 -0.001
   vertex -0.0019656639099121095 -0.0034046297073364257 -0.001
  endloop
 endfacet
 facet normal 0.8660248517990112 -0.5000008940696716 2.5790480862042386e-08
  outer loop
   vertex -0.001600000023841858 -0.0027712812423706054 -0.014
   vertex -0.0015499999523162842 -0.0026846787929534913 -0.014
   vertex -0.001399999976158142 -0.0024248712062835695 -0.001
  endloop
 endfacet
 facet normal 0.8660253286361694 -0.5000000596046448 -5.158094840140848e-09
  outer loop
   vertex -0.001600000023841858 -0.0027712812423706054 -0.014
   vertex -0.001399999976158142 -0.0024248712062835695 -0.001
   vertex -0.001899999976158142 -0.0032908964157104493 -0.001
  endloop
 endfacet
 facet normal 0.866025447845459 -0.4999999701976776 0.0
  outer loop
   vertex -0.0015499999523162842 -0.0026846787929534913 -0.015
   vertex -0.000550000011920929 -0.000952627956867218 -0.015
   vertex -0.000550000011920929 -0.000952627956867218 -0.014
  endloop
 endfacet
 facet normal 0.866025447845459 -0.4999999701976776 0.0
  outer loop
   vertex -0.0015499999523162842 -0.0026846787929534913 -0.015
   vertex -0.000550000011920929 -0.000952627956867218 -0.014
   vertex -0.0015499999523162842 -0.0026846787929534913 -0.014
  endloop
 endfacet
 facet normal 0.866025447845459 -0.4999999701976776 2.4660316011448913e-09
  outer loop
   vertex -0.0025999999046325685 -0.004503332138061524 -0.014
   vertex -0.0019656639099121095 -0.0034046297073364257 -0.001
   vertex -0.002430476665496826 -0.004209709167480469 -0.001
  endloop
 endfacet
 facet normal 0.8660250306129456 -0.5000005960464478 2.2531578380835526e-08
  outer loop
   vertex -0.0025999999046325685 -0.004503332138061524 -0.014
   vertex -0.002430476665496826 -0.004209709167480469 -0.001
   vertex -0.002516324520111084 -0.004358401775360107 -0.001
  endloop
 endfacet
 facet normal 0.866025447845459 -0.49999988079071045 4.5849724017443805e-09
  outer loop
   vertex -0.0025999999046325685 -0.004503332138061524 -0.014
   vertex -0.001600000023841858 -0.0027712812423706054 -0.014
   vertex -0.0019656639099121095 -0.0034046297073364257 -0.001
  endloop
 endfacet
 facet normal 0.8660253286361694 -0.5000001192092896 9.259562894214923e-09
  outer loop
   vertex -0.002650000095367432 -0.004589934825897217 -0.014
   vertex -0.002516324520111084 -0.004358401775360107 -0.001
   vertex -0.0029805378913879397 -0.005162442684173584 -0.001
  endloop
 endfacet
 facet normal 0.866024911403656 -0.5000007748603821 2.5074012199866047e-08
  outer loop
   vertex -0.002650000095367432 -0.004589934825897217 -0.014
   vertex -0.0025999999046325685 -0.004503332138061524 -0.014
   vertex -0.002516324520111084 -0.004358401775360107 -0.001
  endloop
 endfacet
 facet normal 0.8660257458686829 -0.49999940395355225 4.652094176549326e-08
  outer loop
   vertex -0.002650000095367432 -0.004589934825897217 -0.014
   vertex -0.0029805378913879397 -0.005162442684173584 -0.001
   vertex -0.003066775321960449 -0.005311810493469239 -0.001
  endloop
 endfacet
 facet normal 0.866025447845459 -0.4999999403953552 0.0
  outer loop
   vertex -0.0025999999046325685 -0.004503332138061524 -0.015
   vertex -0.001600000023841858 -0.0027712812423706054 -0.015
   vertex -0.001600000023841858 -0.0027712812423706054 -0.014
  endloop
 endfacet
 facet normal 0.866025447845459 -0.4999999403953552 0.0
  outer loop
   vertex -0.0025999999046325685 -0.004503332138061524 -0.015
   vertex -0.001600000023841858 -0.0027712812423706054 -0.014
   vertex -0.0025999999046325685 -0.004503332138061524 -0.014
  endloop
 endfacet
 facet normal 0.8660253882408142 -0.5000001192092896 0.0
  outer loop
   vertex -0.003650000095367432 -0.006321985244750977 -0.014
   vertex -0.003066775321960449 -0.005311810493469239 -0.001
   vertex -0.0035305814743041993 -0.006115146160125732 -0.001
  endloop
 endfacet
 facet normal 0.866025984287262 -0.4999989867210388 -2.277017330243325e-08
  outer loop
   vertex -0.003650000095367432 -0.006321985244750977 -0.014
   vertex -0.0035305814743041993 -0.006115146160125732 -0.001
   vertex -0.00361710262298584 -0.006265005588531494 -0.001
  endloop
 endfacet
 facet normal 0.8660253286361694 -0.5000000596046448 0.0
  outer loop
   vertex -0.003650000095367432 -0.006321985244750977 -0.014
   vertex -0.002650000095367432 -0.004589934825897217 -0.014
   vertex -0.003066775321960449 -0.005311810493469239 -0.001
  endloop
 endfacet
 facet normal 0.8660252690315247 -0.5000001788139343 7.418869074626855e-09
  outer loop
   vertex -0.0037282698154449466 -0.006457552909851075 -0.014
   vertex -0.00361710262298584 -0.006265005588531494 -0.001
   vertex -0.00408061408996582 -0.007067830562591553 -0.001
  endloop
 endfacet
 facet normal 0.8660262823104858 -0.499998539686203 -2.5628297706248304e-08
  outer loop
   vertex -0.0037282698154449466 -0.006457552909851075 -0.014
   vertex -0.003650000095367432 -0.006321985244750977 -0.014
   vertex -0.00361710262298584 -0.006265005588531494 -0.001
  endloop
 endfacet
 facet normal 0.8660256266593933 -0.49999964237213135 3.910585988364801e-08
  outer loop
   vertex -0.0037282698154449466 -0.006457552909851075 -0.014
   vertex -0.00408061408996582 -0.007067830562591553 -0.001
   vertex -0.004227170467376709 -0.00732167387008667 -0.001
  endloop
 endfacet
 facet normal 0.8660253882408142 -0.5000001192092896 0.0
  outer loop
   vertex -0.003650000095367432 -0.006321985244750977 -0.015
   vertex -0.002650000095367432 -0.004589934825897217 -0.015
   vertex -0.002650000095367432 -0.004589934825897217 -0.014
  endloop
 endfacet
 facet normal 0.8660253882408142 -0.5000001192092896 0.0
  outer loop
   vertex -0.003650000095367432 -0.006321985244750977 -0.015
   vertex -0.002650000095367432 -0.004589934825897217 -0.014
   vertex -0.003650000095367432 -0.006321985244750977 -0.014
  endloop
 endfacet
 facet normal 0.8660253882408142 -0.5000001192092896 7.3865833449815455e-09
  outer loop
   vertex -0.004664361953735352 -0.008078911781311036 -0.014
   vertex -0.004565110683441162 -0.007907003402709962 -0.001
   vertex -0.004778481960296631 -0.008276573181152344 -0.001
  endloop
 endfacet
 facet normal 0.8660253882408142 -0.5000000596046448 0.0
  outer loop
   vertex -0.004664361953735352 -0.008078911781311036 -0.014
   vertex -0.0037282698154449466 -0.006457552909851075 -0.015
   vertex -0.0037282698154449466 -0.006457552909851075 -0.014
  endloop
 endfacet
 facet normal 0.8660258054733276 -0.49999940395355225 2.2166867452710903e-08
  outer loop
   vertex -0.004664361953735352 -0.008078911781311036 -0.014
   vertex -0.004778481960296631 -0.008276573181152344 -0.001
   vertex -0.00511459493637085 -0.008858738899230957 -0.001
  endloop
 endfacet
 facet normal 0.8660253882408142 -0.5000000596046448 6.783704709079075e-09
  outer loop
   vertex -0.004664361953735352 -0.008078911781311036 -0.014
   vertex -0.004227170467376709 -0.00732167387008667 -0.001
   vertex -0.004565110683441162 -0.007907003402709962 -0.001
  endloop
 endfacet
 facet normal 0.8660253882408142 -0.5000000596046448 7.346990571477363e-09
  outer loop
   vertex -0.004664361953735352 -0.008078911781311036 -0.014
   vertex -0.0037282698154449466 -0.006457552909851075 -0.014
   vertex -0.004227170467376709 -0.00732167387008667 -0.001
  endloop
 endfacet
 facet normal 0.8660253882408142 -0.5000000596046448 0.0
  outer loop
   vertex -0.004664361953735352 -0.008078911781311036 -0.015
   vertex -0.0037282698154449466 -0.006457552909851075 -0.015
   vertex -0.004664361953735352 -0.008078911781311036 -0.014
  endloop
 endfacet
 facet normal 0.8660246133804321 -0.5000013709068298 0.0
  outer loop
   vertex -0.00525 -0.009093266487121582 -0.014
   vertex -0.00511459493637085 -0.008858738899230957 -0.001
   vertex -0.00525 -0.009093266487121582 -0.001
  endloop
 endfacet
 facet normal 0.8660253882408142 -0.5000000596046448 -3.131608750095438e-08
  outer loop
   vertex -0.00525 -0.009093266487121582 -0.014
   vertex -0.004664361953735352 -0.008078911781311036 -0.014
   vertex -0.00511459493637085 -0.008858738899230957 -0.001
  endloop
 endfacet
 facet normal 0.8660253286361694 -0.5 0.0
  outer loop
   vertex 0.0 1.0000000036274937e-18 -0.015
   vertex 0.0 1.0000000036274937e-18 0.005
   vertex -0.00025 -0.00043301269412040713 -0.001
  endloop
 endfacet
 facet normal 0.8660253882408142 -0.5 0.0
  outer loop
   vertex -0.00025 -0.00043301269412040713 -0.001
   vertex 0.0 1.0000000036274937e-18 0.005
   vertex -0.00025 -0.00043301269412040713 0.0
  endloop
 endfacet
endsolid patch_3_0
